<svg width="66" height="66" viewBox="0 0 66 66" fill="none" xmlns="http://www.w3.org/2000/svg">
<g filter="url(#filter0_i_582_2568)">
<circle cx="33" cy="33" r="33" fill="#EFAE35"/>
<mask id="mask0_582_2568" style="mask-type:alpha" maskUnits="userSpaceOnUse" x="0" y="0" width="66" height="66">
<circle cx="33" cy="33" r="33" fill="#D4B19D"/>
</mask>
<g mask="url(#mask0_582_2568)">
<path d="M58.4212 9.17295C51.5354 10.1298 44.6065 15.2416 44.6065 15.2416C44.6065 15.2416 39.5847 12.5319 33.0145 12.7707C26.4443 12.5319 21.4225 15.2416 21.4225 15.2416C21.4225 15.2416 13.6632 9.00796 6.77656 8.05193C-0.110073 7.0959 7.59634 19.6253 10.7509 22.0961C11.5327 26.241 15.6133 28.5519 15.6133 28.5519C15.6133 28.5519 15.7767 31.5807 16.5128 39.2321C17.249 46.8835 14.5495 52.8616 12.3402 56.9261C10.1309 60.9906 9.16332 65.8527 9.16332 65.8527H56.5003C56.5003 65.8527 55.8941 60.9906 53.6856 56.9261C51.4771 52.8616 48.7768 46.8835 49.5129 39.2321C50.2491 31.5807 50.4125 28.5519 50.4125 28.5519C50.4125 28.5519 54.493 26.2402 55.2749 22.0961C58.4294 19.6253 66.135 8.21614 59.2492 9.17295H58.4212Z" fill="white"/>
<path d="M24.7236 41.8477C31.6314 45.1289 39.0593 43.2962 41.6477 41.8477C40.4033 45.2966 28.782 46.7695 24.7236 41.8477Z" fill="#F0F0F0"/>
<path d="M8.9873 11.7793C8.9873 11.7793 20.1001 16.2875 16.7534 19.8143C13.4067 23.3411 17.1167 19.1571 15.927 17.7859C14.7374 16.4146 11.1093 12.7023 8.9873 11.7801V11.7793Z" fill="#5B3F26"/>
<path d="M29.1094 26.2713C29.1094 26.2713 26.6148 24.4534 23.47 25.3826C20.3252 26.3111 22.8178 27.1348 23.7736 26.5642C24.7294 25.9935 29.6452 26.7369 29.1094 26.2721V26.2713Z" fill="#1D1D1B"/>
<path d="M38.0615 26.2713C38.0615 26.2713 40.5561 24.4534 43.7009 25.3826C46.8457 26.3111 44.3531 27.1348 43.3973 26.5642C42.4415 25.9935 37.5257 26.7369 38.0615 26.2721V26.2713Z" fill="#1D1D1B"/>
<path d="M31.1465 32.7637C31.1465 32.7637 31.9822 33.2946 32.3805 32.936C32.7789 32.5774 31.8364 31.8079 32.5263 31.6092C33.2162 31.4104 33.8134 32.4316 33.1897 33.1753C32.5661 33.919 31.1465 32.7637 31.1465 32.7637Z" fill="#1D1D1B"/>
<path d="M26.6084 34.5962C26.6084 34.5962 31.7567 36.3377 32.9245 35.686C34.0923 35.0343 33.5746 33.6279 33.5746 33.6279C33.5746 33.6279 34.0525 38.0465 39.3731 36.9583C38.6761 39.7709 29.6553 39.837 29.2161 36.1592C29.2355 35.7983 29.0071 35.4693 28.6672 35.3461C27.8627 35.0545 26.6084 34.5969 26.6084 34.5969V34.5962Z" fill="#1D1D1B"/>
<path d="M35.9197 32.7637C35.9197 32.7637 35.084 33.2946 34.6856 32.936C34.2873 32.5774 35.2298 31.8079 34.5398 31.6092C33.8499 31.4104 33.2528 32.4316 33.8764 33.1753C34.5001 33.9182 35.9197 32.7637 35.9197 32.7637Z" fill="#1D1D1B"/>
<path d="M30.1061 31.5967C30.1061 31.4907 29.5222 29.7787 31.0213 28.8503C32.5204 27.9218 37.1121 28.3724 37.5362 29.5799C37.961 30.7875 38.1731 32.0746 37.4169 32.5392C36.6607 33.0038 34.909 34.0515 34.4444 34.9675C33.9798 35.8835 33.1176 35.7237 32.8385 35.0603C32.5602 34.3969 31.4984 33.1496 30.782 32.7645C30.0656 32.3794 30.1053 31.5967 30.1053 31.5967H30.1061Z" fill="#1D1D1B"/>
<path d="M29.8428 35.8242C29.8428 35.8242 29.8693 36.7262 30.6917 37.0185C31.5142 37.3101 32.0451 38.2658 33.5582 37.7349C35.0713 37.2041 35.5219 36.8587 35.5219 36.8587L34.8832 36.8897C33.1394 36.9741 31.4033 36.6072 29.8428 35.8242V35.8242Z" fill="#E30613"/>
<path d="M55.3378 11.7793C55.3378 11.7793 44.225 16.2875 47.5717 19.8143C50.9184 23.3403 47.2084 19.1571 48.398 17.7859C49.5877 16.4146 53.2158 12.7023 55.3378 11.7801V11.7793Z" fill="#5B3F26"/>
</g>
</g>
<defs>
<filter id="filter0_i_582_2568" x="0" y="0" width="66" height="66" filterUnits="userSpaceOnUse" color-interpolation-filters="sRGB">
<feFlood flood-opacity="0" result="BackgroundImageFix"/>
<feBlend mode="normal" in="SourceGraphic" in2="BackgroundImageFix" result="shape"/>
<feColorMatrix in="SourceAlpha" type="matrix" values="0 0 0 0 0 0 0 0 0 0 0 0 0 0 0 0 0 0 127 0" result="hardAlpha"/>
<feOffset/>
<feGaussianBlur stdDeviation="2"/>
<feComposite in2="hardAlpha" operator="arithmetic" k2="-1" k3="1"/>
<feColorMatrix type="matrix" values="0 0 0 0 0 0 0 0 0 0 0 0 0 0 0 0 0 0 0.25 0"/>
<feBlend mode="normal" in2="shape" result="effect1_innerShadow_582_2568"/>
</filter>
</defs>
</svg>
