<svg width="74" height="74" viewBox="0 0 74 74" fill="none" xmlns="http://www.w3.org/2000/svg">
<g filter="url(#filter0_i_582_2584)">
<g filter="url(#filter1_d_582_2584)">
<circle cx="37" cy="33" r="33" fill="#D0E030"/>
<mask id="mask0_582_2584" style="mask-type:alpha" maskUnits="userSpaceOnUse" x="4" y="0" width="66" height="66">
<circle cx="37" cy="33" r="33" fill="#D4B19D"/>
</mask>
<g mask="url(#mask0_582_2584)">
<path d="M76.4161 82.8984C75.8796 85.7498 72.1352 95.2007 66.0722 95.0244C60.0092 94.8443 45.3883 95.0244 45.3883 95.0244C45.3883 95.0244 44.7467 89.738 48.0221 87.8208C48.2022 87.7158 48.3935 87.6182 48.5999 87.5357C47.917 86.155 47.4818 81.8704 47.7857 79.3379C47.8082 79.1578 47.8345 78.989 47.8645 78.8276C47.9358 78.4337 48.0333 78.1035 48.1534 77.8596C47.0316 77.7433 46.4651 77.7171 46.1949 77.7171C45.9961 77.7171 45.9473 77.7283 45.9473 77.7283L45.0018 80.1483L43.3885 84.2791L39.194 95.0244L25.2859 95.3133C25.2859 95.3133 24.618 88.5599 31.5027 87.5582C31.9904 84.4929 32.3431 82.1405 32.587 80.4522C32.5982 80.3696 32.6095 80.2871 32.6245 80.2083C32.9584 78.141 34.2941 72.2244 34.8306 69.8607C34.6205 69.493 34.4216 69.1141 34.2378 68.7276C29.1165 58.2525 31.7691 41.7556 31.7691 41.7556C31.7691 41.7556 34.9769 35.3362 32.8383 31.4118C21.6053 31.0553 18.3937 23.9231 18.3937 23.9231L14.957 23.4278C14.9645 23.274 14.9758 23.1202 14.987 22.9663C14.9383 20.2913 26.2201 20.2913 26.2201 20.2913C26.2201 20.2913 27.5595 16.8133 35.0482 16.2806C38.5261 16.2806 40.3983 17.0797 40.3983 17.0797C40.3983 17.0797 45.2119 10.4614 46.949 12.3336C48.6899 13.1365 49.3577 18.8881 49.6917 24.6359C50.0256 30.3875 53.4135 42.2433 61.615 51.8743C69.8166 61.5016 78.1982 66.3152 77.8418 75.7661C80.8733 64.7094 71.6887 56.823 69.5727 51.3153C67.5917 46.1603 68.2445 41.2266 71.3286 37.4522C71.3586 39.3844 75.3618 36.6268 75.3618 36.6268C75.3618 36.6268 72.8668 42.0633 74.2925 43.489C75.7182 44.9147 77.1027 37.8087 77.2265 37.2009C77.1289 37.8012 75.9546 45.046 77.234 45.9877C78.4533 46.8806 80.3518 40.3262 80.6707 39.1968C80.408 40.2774 78.9673 46.3929 80.2655 46.0702C81.2447 45.8264 81.8262 43.594 82.0926 42.2171C82.0288 43.14 82.1939 44.1043 82.6554 45.0985C86.2197 52.7635 96.9199 74.3404 76.4161 82.8984Z" fill="url(#paint0_linear_582_2584)"/>
<path d="M34.2375 68.7285C31.146 68.057 20.5845 64.2376 25.143 43.9663C25.2068 43.6812 25.2743 43.3923 25.3456 43.0997C25.5295 42.3493 25.7283 41.5839 25.9459 40.8035C25.9984 40.6159 26.051 40.4283 26.1072 40.237C26.1485 40.0944 26.1898 39.9519 26.231 39.8055C26.3474 39.4116 26.4674 39.0139 26.5912 38.6124C26.73 38.1697 26.8726 37.727 27.0227 37.2768C27.0227 37.2768 14.394 34.8006 14.9567 23.4287L18.3934 23.924C18.3934 23.924 21.605 31.0562 32.8381 31.4126C34.9766 35.3371 31.7688 41.7565 31.7688 41.7565C31.7688 41.7565 29.1162 58.2534 34.2375 68.7285Z" fill="url(#paint1_linear_582_2584)"/>
<path d="M33.2282 77.1252C33.2282 77.1252 19.4627 68.8298 25.143 43.9663C25.2068 43.6812 25.2743 43.3923 25.3456 43.0997C25.5295 42.3493 25.7283 41.5839 25.9459 40.8035C25.9984 40.6159 26.051 40.4283 26.1072 40.237C26.1485 40.0944 26.1898 39.9519 26.231 39.8055C26.3474 39.4116 26.4674 39.0139 26.5912 38.6124C26.73 38.1697 26.8726 37.727 27.0227 37.2768C27.0227 37.2768 14.394 34.8006 14.9567 23.4287L18.3934 23.924C18.3934 23.924 21.605 31.0562 32.8381 31.4126C34.9766 35.3371 31.7688 41.7565 31.7688 41.7565C31.7688 41.7565 29.1162 58.2534 34.2375 68.7285C34.4213 69.115 34.6202 69.4939 34.8303 69.8616C34.2938 72.2253 33.2282 77.1252 33.2282 77.1252Z" fill="#FCDEAE"/>
<path d="M14.9079 24.7525C14.9079 24.7525 16.3299 24.8463 17.1628 24.5724C17.9957 24.2985 18.8248 24.3886 19.5602 21.4546C19.9354 20.4416 18.1082 19.9539 18.1082 19.9539C18.1082 19.9539 13.3847 18.8696 14.0675 23.6945C14.2813 24.4598 14.9117 24.7525 14.9117 24.7525L14.9079 24.7525Z" fill="#1D1D1B"/>
<path d="M29.4112 24.0774C29.5807 23.169 29.2475 22.3447 28.667 22.2364C28.0865 22.128 27.4784 22.7767 27.3089 23.6851C27.1394 24.5936 27.4726 25.4179 28.0531 25.5262C28.6336 25.6346 29.2416 24.9859 29.4112 24.0774Z" fill="#1D1D1B"/>
<path d="M30.711 21.1248C30.711 21.1248 30.0431 20.8247 30.1782 20.3894C30.3133 19.9542 30.6772 19.9205 31.2475 19.8567C31.8178 19.7929 34.4516 20.3257 33.6186 21.4587C32.7857 22.5918 31.4163 21.6576 31.315 21.4587C31.2137 21.2599 30.7147 21.1248 30.7147 21.1248L30.711 21.1248Z" fill="#FCDEAE"/>
<path opacity="0.32" d="M27.0226 37.2759C27.0226 37.2759 28.891 37.5085 29.9978 37.2759C31.1046 37.0433 26.0283 40.5025 26.0283 40.5025L27.0188 37.2759L27.0226 37.2759Z" fill="url(#paint2_linear_582_2584)"/>
<path d="M42.5292 17.4324C42.3603 17.545 41.3961 18.0852 42.0339 18.9069C42.6717 19.7285 44.8778 21.0792 44.8778 21.0792C44.8778 21.0792 46.3936 22.1072 46.9338 20.8316C47.4741 19.5559 47.1177 14.9262 45.9809 14.2358C44.8441 13.5455 44.0037 16.4494 42.5292 17.4361L42.5292 17.4324Z" fill="#FCDEAE"/>
<path d="M48.5579 17.1739C48.5879 17.3277 48.6179 17.6541 48.3665 17.7967C48.0326 17.9843 47.8638 17.6429 47.8638 17.6429C47.8638 17.6429 48.0326 18.2769 47.5299 18.3107C47.3873 18.322 47.2635 18.2094 47.1547 18.0406C47.0496 16.3973 46.6519 14.6339 45.9803 14.2324C45.3575 13.8498 44.821 14.5551 44.2207 15.433C43.9506 15.8307 43.6129 15.9958 43.4253 15.9771C43.1027 15.947 43.1327 15.448 43.1777 15.3955C43.1327 15.4218 42.8776 15.5756 42.3673 15.6544C41.797 15.7369 41.9846 15.1179 41.9846 15.1179L41.9884 15.1179C43.5491 13.3358 45.8565 11.1559 46.9483 12.334C47.9763 12.8105 48.6329 15.0166 49.0644 17.928C48.753 17.7742 48.6066 17.354 48.5579 17.1739Z" fill="black"/>
</g>
</g>
</g>
<defs>
<filter id="filter0_i_582_2584" x="4" y="0" width="66" height="66" filterUnits="userSpaceOnUse" color-interpolation-filters="sRGB">
<feFlood flood-opacity="0" result="BackgroundImageFix"/>
<feBlend mode="normal" in="SourceGraphic" in2="BackgroundImageFix" result="shape"/>
<feColorMatrix in="SourceAlpha" type="matrix" values="0 0 0 0 0 0 0 0 0 0 0 0 0 0 0 0 0 0 127 0" result="hardAlpha"/>
<feOffset/>
<feGaussianBlur stdDeviation="2"/>
<feComposite in2="hardAlpha" operator="arithmetic" k2="-1" k3="1"/>
<feColorMatrix type="matrix" values="0 0 0 0 0 0 0 0 0 0 0 0 0 0 0 0 0 0 0.25 0"/>
<feBlend mode="normal" in2="shape" result="effect1_innerShadow_582_2584"/>
</filter>
<filter id="filter1_d_582_2584" x="0" y="0" width="74" height="74" filterUnits="userSpaceOnUse" color-interpolation-filters="sRGB">
<feFlood flood-opacity="0" result="BackgroundImageFix"/>
<feColorMatrix in="SourceAlpha" type="matrix" values="0 0 0 0 0 0 0 0 0 0 0 0 0 0 0 0 0 0 127 0" result="hardAlpha"/>
<feOffset dy="4"/>
<feGaussianBlur stdDeviation="2"/>
<feComposite in2="hardAlpha" operator="out"/>
<feColorMatrix type="matrix" values="0 0 0 0 0 0 0 0 0 0 0 0 0 0 0 0 0 0 0.1 0"/>
<feBlend mode="normal" in2="BackgroundImageFix" result="effect1_dropShadow_582_2584"/>
<feBlend mode="normal" in="SourceGraphic" in2="effect1_dropShadow_582_2584" result="shape"/>
</filter>
<linearGradient id="paint0_linear_582_2584" x1="15.0058" y1="68.6264" x2="82.284" y2="42.7161" gradientUnits="userSpaceOnUse">
<stop stop-color="#FF640B"/>
<stop offset="1" stop-color="#FF4B00"/>
</linearGradient>
<linearGradient id="paint1_linear_582_2584" x1="21.4812" y1="47.2792" x2="36.0909" y2="41.6514" gradientUnits="userSpaceOnUse">
<stop stop-color="#FF640B"/>
<stop offset="1" stop-color="#FF4B00"/>
</linearGradient>
<linearGradient id="paint2_linear_582_2584" x1="26.0321" y1="38.8817" x2="30.1591" y2="38.8817" gradientUnits="userSpaceOnUse">
<stop stop-color="#FF640B"/>
<stop offset="1" stop-color="#FF4B00"/>
</linearGradient>
</defs>
</svg>
