<svg width="66" height="66" viewBox="0 0 66 66" fill="none" xmlns="http://www.w3.org/2000/svg">
<circle cx="33" cy="33" r="33" fill="#647B99"/>
<mask id="mask0_582_2605" style="mask-type:alpha" maskUnits="userSpaceOnUse" x="0" y="0" width="66" height="66">
<circle cx="33" cy="33" r="33" fill="#D4B19D"/>
</mask>
<g mask="url(#mask0_582_2605)">
<path d="M47.3109 98.6084C46.659 99.5721 45.947 100.531 45.17 101.485C43.3692 103.611 36.798 107.127 29.2147 108.998C29.1797 109.008 29.1447 109.016 29.1097 109.025C28.9963 109.053 28.8829 109.08 28.7695 109.106C25.1113 109.973 21.2379 110.445 17.563 110.19C17.4296 110.182 17.2962 110.172 17.1645 110.16C17.0894 110.153 17.0161 110.147 16.9427 110.14C16.1157 110.063 15.3003 109.948 14.5017 109.792C12.1856 109.336 9.94968 108.703 7.89379 107.866C7.28018 107.616 6.68326 107.349 6.10468 107.06C5.66115 106.844 5.23096 106.614 4.81078 106.372C4.31557 106.087 3.83536 105.785 3.37516 105.468C-8.59004 97.2261 -6.17899 87.2017 -6.17899 87.2017C-6.17899 87.2017 -0.219738 59.6665 12.3074 53.2587C12.961 52.9235 13.6346 52.6467 14.3249 52.4333C18.9603 46.7275 17.7131 35.8528 17.7131 35.8528C17.7131 35.8528 11.472 14.2784 22.5268 9.28623C18.8419 10.0582 17.9698 9.18786 18.4851 8.19743C19.0003 7.20533 21.9332 5.18612 28.1126 5.8981C28.1526 5.34452 21.6147 5.1461 21.6147 5.1461C21.6147 5.1461 20.6243 5.06607 20.6643 4.31407C20.7043 3.56041 21.5764 2.92681 22.2884 3.00684C23.002 3.08521 27.2422 3.36199 28.9446 4.90767C29.84 4.07397 41.0665 0.262315 46.3088 9.17118C46.3572 9.24955 46.4022 9.32959 46.4472 9.41129C46.5406 9.57469 46.6289 9.74143 46.7173 9.91484C46.729 9.93485 46.739 9.95486 46.749 9.97487C46.794 10.0666 46.8407 10.1599 46.8857 10.255C46.8874 10.2567 46.8874 10.26 46.8891 10.2617C46.8991 10.2833 46.9091 10.3033 46.9191 10.325C47.1575 10.8286 47.3793 11.3655 47.5827 11.9407C47.5894 11.9624 47.5977 11.9857 47.606 12.0091C47.8812 12.7961 48.1196 13.6515 48.318 14.5785C48.333 14.6486 48.348 14.7186 48.3614 14.7903C48.1129 14.3484 47.616 14.1834 47.2159 14.1834C46.0854 14.1834 45.17 15.3072 45.17 16.6945C45.17 18.0817 46.0854 19.2055 47.2159 19.2055C47.8795 19.2055 48.5865 18.827 48.8416 18.2001C48.8416 18.2068 48.8432 18.2101 48.8432 18.2168C48.8449 18.2285 48.8449 18.2401 48.8466 18.2518C48.8949 18.8521 48.9299 19.4757 48.95 20.1259C48.9516 20.1393 48.9516 20.1543 48.9516 20.1693C48.9533 20.181 48.9533 20.191 48.9533 20.2026V20.3177C48.9533 20.3777 48.9533 20.4377 48.9516 20.4978V20.5428C48.8282 30.3821 43.4075 33.7519 43.4075 33.7519C43.4075 33.7519 43.4059 33.7585 43.4009 33.7702C43.2591 34.1854 40.8181 41.5653 43.6243 49.6738C44.1012 51.051 44.7298 52.45 45.5468 53.8406C51.0058 63.1263 58.9343 81.4192 47.3109 98.6084Z" fill="white"/>
<path d="M37.759 24.5566C37.759 24.5566 34.7277 26.1023 36.6886 27.8848C38.6494 29.6672 46.0143 26.3624 46.0143 26.3624C46.0143 26.3624 47.6083 25.1953 37.759 24.5566Z" fill="#D17412"/>
<path d="M37.7002 24.6163C37.7002 24.6163 36.623 24.9131 40.4314 25.6868C44.238 26.4588 44.8516 25.0449 51.2711 28.7882C52.5199 29.4418 52.565 28.1362 52.5266 26.8656C52.4999 25.9786 52.3099 24.583 50.7792 22.5138C49.8571 21.2682 49.3252 20.8747 47.8329 20.4545C45.1317 19.6925 42.8124 18.6137 42.8124 18.6137C42.8124 18.6137 41.1483 17.7817 40.1379 18.9105C39.1275 20.0394 38.4738 21.9418 38.4138 23.4275C38.3638 24.2645 37.7002 24.6163 37.7002 24.6163Z" fill="#F39200"/>
<path opacity="0.43" d="M43.6227 49.6741C42.779 48.7987 40.3029 45.9725 39.746 42.4693C38.874 34.7826 35.5025 33.4504 36.9331 33.8322C40.6248 34.8176 42.7423 34.079 43.3993 33.7705C43.2576 34.1857 40.8165 41.5656 43.6227 49.6741Z" fill="#1D1D1B"/>
<path opacity="0.43" d="M16.6147 96.3225C15.5709 100.499 9.99513 107.619 7.89255 107.866C5.57654 107.411 7.31063 107.913 7.89255 107.866C7.18891 108.71 6.43858 109.528 5.63657 110.315C4.83622 108.996 4.45605 107.873 4.45605 107.873C4.45605 107.873 4.58278 107.334 4.80954 106.372C6.43525 99.4556 14.6288 65.8993 15.7276 58.6729C16.0528 59.2214 16.3579 59.7667 16.643 60.3102C24.0762 74.398 19.0174 86.7067 16.6147 96.3225Z" fill="#1D1D1B"/>
<path d="M19.6827 76.9774C19.3442 79.8303 16.1762 97.9265 7.89258 107.866C7.18894 108.71 6.43862 109.528 5.6366 110.315C1.52481 114.352 -2.45858 112.746 -9.66338 113.907C-12.2528 115.244 -8.05268 107.777 -7.97598 107.641C-8.08603 107.719 -12.0844 110.617 -12.8914 109.76C-13.7118 108.893 -9.61336 102.24 -9.61336 102.24C-9.61336 102.24 -10.6388 103.01 -10.8422 102.047C-11.044 101.098 -8.06602 95.1903 -7.97598 95.0119C-8.01933 95.0686 -8.62292 95.8306 -9.51164 94.6217C-10.4337 93.3695 -6.84882 83.8237 -6.84882 81.5094C-6.84882 79.1951 3.60072 56.8253 12.3062 53.2588C14.0536 54.7444 15.5026 57.3406 16.643 60.3102C18.9824 66.3978 20.0262 74.0612 19.6827 76.9774Z" fill="white"/>
<path d="M35.4375 19.8405C36.6807 19.8405 37.6885 18.6461 37.6885 17.1727C37.6885 15.6993 36.6807 14.5049 35.4375 14.5049C34.1943 14.5049 33.1865 15.6993 33.1865 17.1727C33.1865 18.6461 34.1943 19.8405 35.4375 19.8405Z" fill="#1D1D1B"/>
<path d="M48.8415 18.1987C48.5864 18.8273 47.8794 19.2058 47.2158 19.2058C46.0853 19.2058 45.1699 18.082 45.1699 16.6947C45.1699 15.3074 46.0853 14.1836 47.2158 14.1836C47.616 14.1836 48.1129 14.3487 48.3613 14.7905C48.3646 14.7955 48.368 14.8022 48.3713 14.8072C48.6064 15.9077 48.7315 16.8831 48.8415 18.1987Z" fill="#1D1D1B"/>
</g>
<mask id="mask1_582_2605" style="mask-type:alpha" maskUnits="userSpaceOnUse" x="0" y="0" width="66" height="66">
<circle cx="33" cy="33" r="33" fill="#D4B19D"/>
</mask>
<g mask="url(#mask1_582_2605)">
</g>
</svg>
