<svg width="66" height="66" viewBox="0 0 66 66" fill="none" xmlns="http://www.w3.org/2000/svg">
<g filter="url(#filter0_i_582_2548)">
<circle cx="33" cy="33" r="33" fill="#C9007F"/>
<mask id="mask0_582_2548" style="mask-type:alpha" maskUnits="userSpaceOnUse" x="0" y="0" width="66" height="66">
<circle cx="33" cy="33" r="33" fill="#D4B19D"/>
</mask>
<g mask="url(#mask0_582_2548)">
<path d="M57.2143 118.24H-28C-28 118.24 -27.8941 102.046 -12.0888 102.574C-12.0888 102.574 -28.6356 74.6292 -6.99761 48.8025C-12.5686 38.216 -5.93825 23.3966 -5.93825 23.3966C-5.93825 23.3966 -12.0888 4.88524 -8.69467 5.25008C-5.30055 5.61284 7.85217 8.78858 7.63822 10.0593C8.46078 9.60946 9.94596 9.21768 11.8445 8.89844C11.8944 8.88808 11.9504 8.87771 12.0065 8.86942C12.1976 8.83833 12.3929 8.80723 12.5923 8.77614C12.6318 8.77199 12.6692 8.76578 12.7065 8.75956C17.3283 8.06927 23.9358 7.75211 29.5421 7.9138C32.0264 7.98635 34.3134 8.15219 36.1434 8.42374C38.3223 8.74505 39.8553 9.2156 40.3081 9.84785C47.0964 7.50543 54.3083 4.03741 55.3698 5.25008C56.4312 6.46067 53.6727 23.608 53.6727 23.608C53.6727 23.608 58.552 35.4631 56.855 42.451C67.4611 47.9546 93.8475 90.0829 57.2143 118.24Z" fill="#EE702A"/>
<path d="M15.1926 29.0394C16.1211 29.2467 16.5885 30.3018 16.1024 31.1186C15.23 32.5841 13.4935 34.3358 10.3839 33.4879C5.34467 32.1115 7.14767 27.2422 7.14767 27.2422L9.82931 27.8413C9.55096 28.2641 9.41179 28.7865 9.48242 29.3421C9.60913 30.3537 10.4421 31.1663 11.4557 31.2699C12.7934 31.4067 13.9193 30.364 13.9193 29.0602C13.9193 28.9544 13.911 28.8529 13.8985 28.7513L15.1926 29.0415V29.0394Z" fill="white"/>
<path d="M13.9194 29.0578C13.9194 30.2849 12.9224 31.2799 11.6906 31.2799C10.4588 31.2799 9.46387 30.2849 9.46387 29.0578C9.46387 28.6079 9.59888 28.1892 9.82945 27.8389L13.8987 28.7489C13.9111 28.8505 13.9194 28.952 13.9194 29.0578Z" fill="#1D1D1B"/>
<path d="M32.6119 29.0831C31.7956 29.2655 31.3739 30.1797 31.7789 30.9114C32.6077 32.4122 34.3588 34.3753 37.6158 33.486C42.6551 32.1096 40.8521 27.2402 40.8521 27.2402L38.1704 27.8393C38.4488 28.2622 38.5879 28.7846 38.5173 29.3401C38.3906 30.3517 37.5577 31.1643 36.544 31.2679C35.2063 31.4048 34.0805 30.3621 34.0805 29.0582C34.0805 28.9525 34.0888 28.8509 34.1012 28.7493L32.6119 29.0831Z" fill="white"/>
<path d="M34.0811 29.0578C34.0811 30.2849 35.0781 31.2799 36.3099 31.2799C37.5416 31.2799 38.5366 30.2849 38.5366 29.0578C38.5366 28.6079 38.4016 28.1892 38.171 27.8389L34.1018 28.7489C34.0894 28.8505 34.0811 28.952 34.0811 29.0578Z" fill="#1D1D1B"/>
<path d="M11.8447 8.89641C11.8447 8.89641 15.2492 20.6437 16.8549 23.3966C18.4606 26.1495 18.4605 8.1543 18.4605 8.1543C18.4605 8.1543 13.4732 8.58132 11.8468 8.89641H11.8447Z" fill="#E94E1B"/>
<path d="M36.1433 8.424C35.9272 9.17026 32.6972 20.2252 31.1477 22.8827C29.6583 25.4345 29.5503 10.1549 29.542 7.91406C32.0263 7.98662 34.3133 8.15245 36.1433 8.424Z" fill="#E94E1B"/>
<path d="M43.5838 12.3663C43.5838 12.3663 43.3657 12.1673 44.7532 11.2511C46.3859 10.1732 50.8435 8.19559 52.9145 7.17363C53.0142 7.12388 53.0993 7.26277 53.0079 7.32703C51.1696 8.62054 47.3684 11.448 45.663 13.8692C45.0336 14.7626 43.5838 12.3663 43.5838 12.3663Z" fill="#1D1D1B"/>
<path d="M4.53747 12.0322C4.53747 12.0322 4.70988 11.7918 3.15822 11.1865C1.33653 10.4734 -3.43891 9.47422 -5.67811 8.91038C-5.78613 8.88343 -5.84013 9.03683 -5.73627 9.08036C-3.6674 9.95929 0.644829 11.9286 2.81964 13.9393C3.62351 14.6814 4.53747 12.0343 4.53747 12.0343V12.0322Z" fill="#1D1D1B"/>
<path d="M28.9479 44.1339C28.736 41.4868 24.1226 38.2178 24.1226 38.2178H23.3395C23.3395 38.2178 18.7261 41.4868 18.5142 44.1339C18.3086 46.694 19.8415 48.2487 23.7321 48.1616C27.6227 48.2487 29.1556 46.6961 28.95 44.1339H28.9479Z" fill="#EE8346"/>
<path d="M22.0726 35.4967C22.0726 35.4967 14.6488 29.508 10.86 38.0983C9.20241 42.5903 15.0788 46.7673 18.9714 43.2993C22.864 39.8312 23.7323 38.4921 23.7323 38.4921V35.0241C23.7323 35.0241 22.8786 34.8645 22.0747 35.4967H22.0726Z" fill="#E94E1B"/>
<path d="M25.4546 35.4967C25.4546 35.4967 32.8784 29.508 36.6672 38.0983C38.3248 42.5903 32.4485 46.7673 28.5558 43.2993C24.6632 39.8312 23.7949 38.4921 23.7949 38.4921V35.0241C23.7949 35.0241 24.6071 34.8645 25.4525 35.4967H25.4546Z" fill="#E94E1B"/>
<path d="M25.1964 33.8791C24.5462 33.7899 24.1702 33.7402 23.9542 33.7091C23.9397 33.7091 23.9272 33.707 23.9127 33.707H23.68C23.6655 33.707 23.653 33.707 23.6385 33.7091C23.4204 33.7381 23.0444 33.7899 22.3963 33.8791C22.388 33.8791 22.3776 33.8812 22.3693 33.8832C20.4396 34.275 20.5809 35.6452 20.9319 35.8919C21.283 36.1386 21.9227 35.61 21.9227 35.61C23.3851 33.9413 23.4869 37.1771 23.4827 38.226C23.4827 38.3981 23.6219 38.539 23.7964 38.539C23.9688 38.539 24.11 38.4002 24.11 38.226C24.1059 37.1771 24.2076 33.9413 25.67 35.61C25.67 35.61 26.3077 36.1386 26.6608 35.8919C27.0139 35.6452 27.1552 34.275 25.2234 33.8832C25.2151 33.8832 25.2047 33.8791 25.1964 33.8791Z" fill="#1D1D1B"/>
<path d="M8.06445 54.7286C8.06445 54.7286 15.7023 55.9993 25.3487 55.5764C34.9951 55.1536 41.1685 53.46 41.1685 53.46C41.1685 53.46 32.704 68.2794 8.06445 54.7307V54.7286Z" fill="#E94E1B"/>
</g>
</g>
<defs>
<filter id="filter0_i_582_2548" x="0" y="0" width="66" height="66" filterUnits="userSpaceOnUse" color-interpolation-filters="sRGB">
<feFlood flood-opacity="0" result="BackgroundImageFix"/>
<feBlend mode="normal" in="SourceGraphic" in2="BackgroundImageFix" result="shape"/>
<feColorMatrix in="SourceAlpha" type="matrix" values="0 0 0 0 0 0 0 0 0 0 0 0 0 0 0 0 0 0 127 0" result="hardAlpha"/>
<feOffset/>
<feGaussianBlur stdDeviation="2"/>
<feComposite in2="hardAlpha" operator="arithmetic" k2="-1" k3="1"/>
<feColorMatrix type="matrix" values="0 0 0 0 0 0 0 0 0 0 0 0 0 0 0 0 0 0 0.25 0"/>
<feBlend mode="normal" in2="shape" result="effect1_innerShadow_582_2548"/>
</filter>
</defs>
</svg>
