<svg width="229" height="193" viewBox="0 0 229 193" fill="none" xmlns="http://www.w3.org/2000/svg">
<path d="M211.59 78.1106L213.329 76.4033L213.499 76.2361L213.645 76.0474C216.939 71.7898 223.402 62.2665 224.974 50.9715C225.77 45.251 225.32 39.0146 222.519 32.8181C219.72 26.6271 214.685 20.7234 206.713 15.4817C206.22 15.1474 205.723 14.8672 205.328 14.651L205.311 14.6416L205.294 14.6324C178.719 0.472255 156.245 2.71865 138.725 11.3921C121.415 19.9617 109.221 34.6493 102.503 45.0484C95.6779 55.6127 90.5845 70.1133 86.7967 82.3925C85.562 86.3951 84.4411 90.2481 83.4458 93.6695C82.9137 95.4986 82.4174 97.2044 81.9589 98.7437C81.2912 100.985 80.7027 102.878 80.1808 104.369C79.7969 105.467 79.4917 106.219 79.2674 106.695C73.9447 110.794 67.6993 113.656 60.9689 116.051C56.7839 117.539 52.6895 118.763 48.5448 120.002C45.5839 120.887 42.5974 121.779 39.5338 122.781C25.4224 127.399 11.6512 133.812 6.17629 150.403L6.17623 150.403C2.15575 162.59 4.9413 174.659 9.87779 184.085C14.7496 193.388 22.0692 200.78 28.0913 203.427C30.1744 204.343 34.6765 205.616 39.5032 206.056C44.095 206.475 49.9851 206.243 54.2856 203.217C54.6705 203.02 55.0742 202.811 55.4969 202.592C64.8514 197.749 83.4567 188.118 111.83 189.496C132.306 190.495 142.372 190.934 151.181 189.703C158.732 188.647 165.361 186.358 176.7 182.443C178.623 181.779 180.68 181.068 182.901 180.309C200.571 174.268 206.324 156.403 207.473 139.622C208.637 122.62 205.253 105.066 203.03 96.8894L211.59 78.1106ZM211.59 78.1106C211.441 78.2988 211.268 78.4907 211.066 78.6862C210.598 79.1408 209.962 79.6319 209.087 80.1564C207.648 81.0258 205.442 82.6977 203.949 85.3341C202.517 87.863 201.579 91.5509 203.03 96.8892L211.59 78.1106Z" fill="#CFE4FF" stroke="#CFE4FF" stroke-width="7" stroke-miterlimit="10"/>
</svg>
