<svg width="33" height="34" viewBox="0 0 33 34" fill="none" xmlns="http://www.w3.org/2000/svg">
<path opacity="0.6" d="M3.90941 33.1438C3.05439 33.1438 2.32405 32.8395 1.7184 32.2307C1.11276 31.6219 0.809937 30.8877 0.809937 30.0283V23.3673H3.2147V30.0283C3.2147 30.2073 3.28596 30.3685 3.42846 30.5117C3.57097 30.655 3.73128 30.7266 3.90941 30.7266H29.774C29.9521 30.7266 30.1125 30.655 30.255 30.5117C30.3975 30.3685 30.4687 30.2073 30.4687 30.0283V23.3673H32.8735V30.0283C32.8735 30.8877 32.5707 31.6219 31.965 32.2307C31.3594 32.8395 30.629 33.1438 29.774 33.1438H3.90941ZM16.8417 25.0863L7.9708 16.1693L9.73429 14.4503L15.6126 20.3592V0.537598H18.0708V20.3592L23.9491 14.4503L25.7126 16.1693L16.8417 25.0863Z" fill="#FF5D00"/>
</svg>
