<svg width="325" height="314" viewBox="0 0 325 314" fill="none" xmlns="http://www.w3.org/2000/svg">
<path d="M307.356 0.263504C271.45 5.38462 223.319 42.7446 223.319 42.7446C223.319 42.7446 197.133 28.2417 162.872 29.5199C128.612 28.2417 102.426 42.7446 102.426 42.7446C102.426 42.7446 47.9647 5.38045 12.0542 0.263504C-23.8563 -4.85344 30.3289 66.2073 46.7783 79.432C50.8552 101.617 72.1333 113.985 72.1333 113.985C72.1333 113.985 72.9854 130.196 76.8242 171.149C80.6629 212.101 66.5861 244.097 55.0657 265.852C43.5453 287.606 47.3882 313.629 47.3882 313.629H278.34C278.34 313.629 282.179 287.606 270.662 265.852C259.146 244.097 245.065 212.101 248.904 171.149C252.743 130.196 253.595 113.985 253.595 113.985C253.595 113.985 274.873 101.612 278.95 79.432C295.399 66.2073 347.58 -4.85762 311.674 0.263504H307.356Z" fill="white"/>
<path d="M34.2554 25.1589C34.2554 25.1589 93.7999 49.3151 75.8676 68.2123C57.9353 87.1094 77.8141 64.691 71.4399 57.3435C65.0656 49.9959 45.6254 30.1046 34.2554 25.1631V25.1589Z" fill="#1D1D1B"/>
<path d="M142.075 102.815C142.075 102.815 128.708 93.0742 111.858 98.0533C95.0072 103.028 109.155 113.128 114.276 110.071C119.397 107.013 126.01 97.2722 142.075 102.819V102.815Z" fill="#1D1D1B"/>
<path d="M182.76 102.815C182.76 102.815 196.126 93.0742 212.977 98.0533C229.827 103.028 215.679 113.128 210.558 110.071C205.437 107.013 198.825 97.2722 182.76 102.819V102.815Z" fill="#1D1D1B"/>
<path d="M152.989 137.598C152.989 137.598 157.467 140.443 159.602 138.521C161.736 136.6 156.686 132.477 160.383 131.412C164.079 130.347 167.279 135.819 163.937 139.804C160.596 143.788 152.989 137.598 152.989 137.598Z" fill="#1D1D1B"/>
<path d="M128.674 147.418C128.674 147.418 156.26 156.75 162.517 153.258C168.774 149.766 166.001 142.23 166.001 142.23C166.001 142.23 168.561 165.906 197.07 160.075C193.336 175.146 141.515 176.604 142.647 155.793C142.751 153.86 141.527 152.097 139.706 151.437C135.395 149.875 128.674 147.423 128.674 147.423V147.418Z" fill="#1D1D1B"/>
<path d="M178.566 137.598C178.566 137.598 174.088 140.443 171.953 138.521C169.819 136.6 174.869 132.477 171.172 131.412C167.475 130.347 164.276 135.819 167.617 139.804C170.959 143.784 178.566 137.598 178.566 137.598Z" fill="#1D1D1B"/>
<path d="M147.409 131.345C147.409 130.777 144.28 121.604 152.313 116.629C160.345 111.654 184.948 114.068 187.221 120.539C189.497 127.009 190.633 133.906 186.582 136.395C182.53 138.885 173.144 144.499 170.654 149.407C168.165 154.315 163.545 153.459 162.049 149.904C160.558 146.349 154.869 139.666 151.03 137.602C147.192 135.539 147.405 131.345 147.405 131.345H147.409Z" fill="#1D1D1B"/>
<path d="M143.745 154.081C143.745 154.081 143.887 158.914 148.294 160.48C152.701 162.042 155.546 167.163 163.653 164.319C171.761 161.474 174.176 159.624 174.176 159.624L143.745 154.081Z" fill="#E30613"/>
<path d="M282.613 25.1589C282.613 25.1589 223.068 49.3151 241.001 68.2123C258.933 87.1053 239.054 64.691 245.428 57.3435C251.803 49.9959 271.243 30.1046 282.613 25.1631V25.1589Z" fill="#1D1D1B"/>
</svg>
