<svg width="25" height="25" viewBox="0 0 25 25" fill="none" xmlns="http://www.w3.org/2000/svg">
<g id="Frame">
<path id="Vector" d="M22.9166 22.9168L18.75 18.7502H8.33331C7.7604 18.7502 7.26995 18.5462 6.86196 18.1382C6.45397 17.7302 6.24998 17.2397 6.24998 16.6668V15.6252H17.7083C18.2812 15.6252 18.7717 15.4212 19.1797 15.0132C19.5877 14.6052 19.7916 14.1147 19.7916 13.5418V6.25016H20.8333C21.4062 6.25016 21.8967 6.45416 22.3047 6.86214C22.7127 7.27013 22.9166 7.76058 22.9166 8.3335V22.9168ZM4.16665 12.6825L5.3906 11.4585H15.625V4.16683H4.16665V12.6825ZM2.08331 17.7085V4.16683C2.08331 3.59391 2.28731 3.10346 2.69529 2.69548C3.10328 2.28749 3.59373 2.0835 4.16665 2.0835H15.625C16.1979 2.0835 16.6883 2.28749 17.0963 2.69548C17.5043 3.10346 17.7083 3.59391 17.7083 4.16683V11.4585C17.7083 12.0314 17.5043 12.5219 17.0963 12.9299C16.6883 13.3378 16.1979 13.5418 15.625 13.5418H6.24998L2.08331 17.7085Z" fill="white"/>
</g>
</svg>
