<svg width="46" height="45" viewBox="0 0 46 45" fill="none" xmlns="http://www.w3.org/2000/svg">
<rect x="0.5" width="45" height="45" rx="4" fill="white"/>
<g clip-path="url(#clip0_117_417)">
<path d="M16.3963 33.6719C15.7853 33.6719 15.2622 33.4544 14.827 33.0192C14.3919 32.5841 14.1743 32.061 14.1743 31.4499V13.6737C14.1743 13.0626 14.3919 12.5395 14.827 12.1044C15.2622 11.6692 15.7853 11.4517 16.3963 11.4517H29.7285C30.3396 11.4517 30.8627 11.6692 31.2978 12.1044C31.733 12.5395 31.9505 13.0626 31.9505 13.6737V31.4499C31.9505 32.061 31.733 32.5841 31.2978 33.0192C30.8627 33.4544 30.3396 33.6719 29.7285 33.6719H26.3955L25.2845 31.4499H20.8404L19.7294 33.6719H16.3963ZM16.3963 31.4499H18.3406L19.4516 29.2279H26.6732L27.7842 31.4499H29.7285V13.6737H16.3963V31.4499ZM18.6184 25.8948H27.5065V25.2838C27.5065 24.3209 27.0436 23.6265 26.1177 23.2006C25.1919 22.7747 24.1734 22.5618 23.0624 22.5618C21.9514 22.5618 20.933 22.7747 20.0071 23.2006C19.0813 23.6265 18.6184 24.3209 18.6184 25.2838V25.8948ZM23.0624 21.4508C23.6735 21.4508 24.1966 21.2332 24.6317 20.7981C25.0669 20.3629 25.2845 19.8398 25.2845 19.2288C25.2845 18.6177 25.0669 18.0946 24.6317 17.6594C24.1966 17.2243 23.6735 17.0067 23.0624 17.0067C22.4514 17.0067 21.9283 17.2243 21.4931 17.6594C21.058 18.0946 20.8404 18.6177 20.8404 19.2288C20.8404 19.8398 21.058 20.3629 21.4931 20.7981C21.9283 21.2332 22.4514 21.4508 23.0624 21.4508Z" fill="#FF5D00"/>
</g>
<defs>
<clipPath id="clip0_117_417">
<rect width="26.6643" height="26.6643" fill="white" transform="translate(9.72974 9.22998)"/>
</clipPath>
</defs>
</svg>
