<svg width="22" height="28" viewBox="0 0 22 28" fill="none" xmlns="http://www.w3.org/2000/svg">
<path d="M9.57231 22.4931H12.2626V18.4577H16.2981V15.7674H12.2626V11.7319H9.57231V15.7674H5.53686V18.4577H9.57231V22.4931ZM2.84655 27.8737C2.10672 27.8737 1.47338 27.6103 0.946526 27.0835C0.419675 26.5566 0.15625 25.9233 0.15625 25.1834V3.66101C0.15625 2.92117 0.419675 2.28783 0.946526 1.76098C1.47338 1.23413 2.10672 0.970703 2.84655 0.970703H13.6078L21.6787 9.04161V25.1834C21.6787 25.9233 21.4152 26.5566 20.8884 27.0835C20.3615 27.6103 19.7282 27.8737 18.9884 27.8737H2.84655ZM12.2626 10.3868V3.66101H2.84655V25.1834H18.9884V10.3868H12.2626Z" fill="#FF5D19"/>
</svg>
