<svg width="344" height="1008" viewBox="0 0 344 1008" fill="none" xmlns="http://www.w3.org/2000/svg">
<mask id="mask0_206_1243" style="mask-type:alpha" maskUnits="userSpaceOnUse" x="0" y="0" width="344" height="1008">
<path d="M0 0H309C328.33 0 344 15.67 344 35V908C344 963.228 299.228 1008 244 1008H0V0Z" fill="#FF5D18"/>
</mask>
<g mask="url(#mask0_206_1243)">
<path d="M138.144 662.177L139.811 660.042L139.96 659.851L140.081 659.642C143.033 654.542 148.629 643.281 148.498 630.909C148.431 624.644 146.895 618.041 142.772 611.869C138.657 605.708 132.121 600.209 122.429 595.88C121.845 595.609 121.262 595.393 120.789 595.225L120.771 595.219L120.753 595.212C88.9332 584.301 64.4364 590.311 46.4734 602.396C28.6889 614.361 17.5742 632.086 11.8254 644.358C6.13095 656.513 -0.272827 674.44 -5.58803 690.029C-7.46251 695.527 -9.21239 700.766 -10.7533 705.38C-11.4018 707.322 -12.0134 709.153 -12.5816 710.846C-14.537 716.671 -15.9182 720.668 -16.5791 722.156C-16.5727 722.141 -16.6593 722.323 -17.0066 722.733C-17.3336 723.119 -17.7952 723.597 -18.4129 724.179C-19.6547 725.348 -21.3239 726.749 -23.3747 728.438C-23.832 728.814 -24.3057 729.203 -24.7942 729.604C-28.6292 732.751 -33.3736 736.644 -38.1906 741.211C-49.0062 751.465 -60.6898 765.566 -63.8795 783.5L-63.8795 783.5C-66.3352 797.311 -61.2074 807.057 -53.7975 813.602C-46.58 819.978 -37.2886 823.274 -31.0762 824.908C-26.1082 826.214 -20.7952 825.35 -16.5237 822.397L-16.5221 822.396C-7.77052 816.337 14.2086 803.596 48.1973 800.301L138.144 662.177ZM138.144 662.177C138.015 662.397 137.859 662.626 137.671 662.865C137.244 663.405 136.637 664.017 135.769 664.708C134.273 665.906 132.05 668.107 130.803 671.244C129.607 674.252 129.178 678.429 131.711 684C135.546 692.434 142.24 710.776 143.776 729.252C145.297 747.543 141.822 767.537 123.363 776.777C116.9 780.013 111.938 782.685 107.722 784.956C106.614 785.553 105.558 786.121 104.54 786.665C99.6668 789.269 95.6156 791.328 91.0833 793.004C82.0123 796.359 71.3117 798.065 48.1981 800.3L138.144 662.177Z" stroke="#FF701E" stroke-width="7" stroke-miterlimit="10"/>
<path d="M87.7752 828.584C87.7752 828.584 88.1233 862.421 147.796 875.52C207.468 888.619 214.96 878.126 238.124 927.973C261.287 977.82 283.502 1016.05 338.433 970.977C393.389 925.916 320.16 850.868 320.16 850.868C320.16 850.868 271.373 795.02 329.766 731.499C388.16 667.978 300.407 630.333 300.407 630.333C300.407 630.333 206.771 606.412 177.428 719.812C171.948 781.075 143.646 795.154 120.776 796.562C97.9058 797.97 87.7595 828.553 87.7595 828.553L87.7752 828.584Z" fill="#FF701E" stroke="#FF701E" stroke-width="7" stroke-miterlimit="10"/>
<path d="M-66.9246 130.603C-66.9246 130.603 -66.4725 174.551 11.0308 191.564C88.5341 208.577 98.2652 194.949 128.35 259.691C158.435 324.433 187.288 374.083 258.633 315.544C330.01 257.019 234.9 159.546 234.9 159.546C234.9 159.546 171.535 87.0088 247.377 4.50737C323.219 -77.9941 209.244 -126.887 209.244 -126.887C209.244 -126.887 87.6291 -157.957 49.5182 -10.6722C42.4007 68.8973 5.64148 87.183 -24.0627 89.0119C-53.7668 90.8409 -66.945 130.563 -66.945 130.563L-66.9246 130.603Z" fill="#FF701E" stroke="#FF701E" stroke-width="7" stroke-miterlimit="10"/>
<path d="M138.144 910.177L139.811 908.042L139.96 907.851L140.081 907.642C143.033 902.542 148.628 891.281 148.497 878.909C148.431 872.644 146.894 866.041 142.772 859.869C138.657 853.708 132.12 848.209 122.429 843.88C121.845 843.609 121.261 843.393 120.788 843.225L120.77 843.219L120.752 843.212C88.9327 832.301 64.4359 838.311 46.4729 850.396C28.6884 862.361 17.5737 880.086 11.8249 892.358C6.13046 904.513 -0.273315 922.44 -5.58852 938.029C-7.463 943.527 -9.21288 948.766 -10.7537 953.38C-11.4023 955.322 -12.0138 957.153 -12.582 958.846C-14.5375 964.671 -15.9187 968.668 -16.5796 970.156C-16.5732 970.141 -16.6598 970.323 -17.0071 970.733C-17.3341 971.119 -17.7957 971.597 -18.4134 972.179C-19.6552 973.348 -21.3244 974.749 -23.3752 976.438C-23.8325 976.814 -24.3062 977.203 -24.7947 977.604C-28.6297 980.751 -33.3741 984.644 -38.1911 989.211C-49.0067 999.465 -60.6903 1013.57 -63.8799 1031.5L-63.88 1031.5C-66.3357 1045.31 -61.2079 1055.06 -53.798 1061.6C-46.5805 1067.98 -37.2891 1071.27 -31.0767 1072.91C-26.1087 1074.21 -20.7957 1073.35 -16.5242 1070.4L-16.5226 1070.4C-7.77101 1064.34 14.2082 1051.6 48.1968 1048.3L138.144 910.177ZM138.144 910.177C138.015 910.397 137.858 910.626 137.67 910.865C137.243 911.405 136.637 912.017 135.768 912.708C134.273 913.906 132.05 916.107 130.802 919.244C129.606 922.252 129.178 926.429 131.711 932C135.546 940.434 142.239 958.776 143.776 977.252C145.297 995.543 141.822 1015.54 123.363 1024.78C116.899 1028.01 111.937 1030.69 107.721 1032.96C106.614 1033.55 105.558 1034.12 104.54 1034.67C99.6663 1037.27 95.6151 1039.33 91.0828 1041C82.0118 1044.36 71.3112 1046.06 48.1976 1048.3L138.144 910.177Z" fill="#FF7A47" stroke="#FF7A47" stroke-width="7" stroke-miterlimit="10"/>
<path d="M201.276 576.121L147.427 535.552C147.427 535.552 157.064 501.786 129.802 499.334C116.226 497.572 112.425 531.014 112.425 531.014C112.425 531.014 83.4643 517.549 86.5988 536.049C89.7334 554.55 130.506 556.465 130.506 556.465C130.506 556.465 176.509 591.104 181.74 591.267C186.971 591.43 182.697 619.357 192.329 628.764C201.961 638.171 210.359 641.308 211.513 622.532C212.667 603.756 222.314 602.556 225.411 603.24C228.509 603.924 252.17 598.639 246.472 587.279C240.774 575.918 225.726 570.813 213.512 573.467C201.298 576.12 202.599 577.103 201.298 576.12L201.276 576.121Z" stroke="#FF7A47" stroke-width="7" stroke-miterlimit="10"/>
<path d="M287.85 545.361C287.85 545.361 261.3 565.791 281.72 591.831C302.14 617.871 323.08 599.491 323.08 599.491C323.08 599.491 339.42 589.791 326.14 554.551C318.49 539.751 301.12 537.701 287.85 545.361Z" stroke="#FF701E" stroke-width="7" stroke-miterlimit="10"/>
<path d="M296.19 543.151C296.19 543.151 297.21 571.921 329.89 579.921" stroke="#FF701E" stroke-width="7" stroke-miterlimit="10"/>
<path d="M276.61 564.431C276.61 564.431 318.19 580.091 310.85 605.281" stroke="#FF701E" stroke-width="7" stroke-miterlimit="10"/>
</g>
</svg>
