<svg width="463" height="1080" viewBox="0 0 463 1080" fill="none" xmlns="http://www.w3.org/2000/svg">
<path d="M138.144 698.177L139.811 696.042L139.96 695.851L140.081 695.642C143.033 690.542 148.629 679.281 148.498 666.909C148.431 660.644 146.895 654.041 142.772 647.869C138.657 641.708 132.121 636.209 122.429 631.88C121.845 631.609 121.262 631.393 120.789 631.225L120.771 631.219L120.753 631.212C88.9332 620.301 64.4364 626.311 46.4734 638.396C28.6889 650.361 17.5742 668.086 11.8254 680.358C6.13095 692.513 -0.272827 710.44 -5.58803 726.029C-7.46251 731.527 -9.21239 736.766 -10.7533 741.38C-11.4018 743.322 -12.0134 745.153 -12.5816 746.846C-14.537 752.671 -15.9182 756.668 -16.5791 758.156C-16.5727 758.141 -16.6593 758.323 -17.0066 758.733C-17.3336 759.119 -17.7952 759.597 -18.4129 760.179C-19.6547 761.348 -21.3239 762.749 -23.3747 764.438C-23.832 764.814 -24.3057 765.203 -24.7942 765.604C-28.6292 768.751 -33.3736 772.644 -38.1906 777.211C-49.0062 787.465 -60.6898 801.566 -63.8795 819.5L-63.8795 819.5C-66.3352 833.311 -61.2074 843.057 -53.7975 849.602C-46.58 855.978 -37.2886 859.274 -31.0762 860.908C-26.1082 862.214 -20.7952 861.35 -16.5237 858.397L-16.5221 858.396C-7.77052 852.337 14.2086 839.596 48.1973 836.301L138.144 698.177ZM138.144 698.177C138.015 698.397 137.859 698.626 137.671 698.865C137.244 699.405 136.637 700.017 135.769 700.708C134.273 701.906 132.05 704.107 130.803 707.244C129.607 710.252 129.178 714.429 131.711 720C135.546 728.434 142.24 746.776 143.776 765.252C145.297 783.543 141.822 803.537 123.363 812.777C116.9 816.013 111.938 818.685 107.722 820.956C106.614 821.553 105.558 822.121 104.54 822.665C99.6668 825.269 95.6156 827.328 91.0833 829.004C82.0123 832.359 71.3117 834.065 48.1981 836.3L138.144 698.177Z" stroke="#FF701E" stroke-width="7" stroke-miterlimit="10"/>
<path d="M87.7752 864.584C87.7752 864.584 88.1233 898.421 147.796 911.52C207.468 924.619 214.96 914.126 238.124 963.973C261.287 1013.82 283.502 1052.05 338.433 1006.98C393.389 961.916 320.16 886.868 320.16 886.868C320.16 886.868 271.373 831.02 329.766 767.499C388.16 703.978 300.407 666.333 300.407 666.333C300.407 666.333 206.771 642.412 177.428 755.812C171.948 817.075 143.646 831.154 120.776 832.562C97.9058 833.97 87.7595 864.553 87.7595 864.553L87.7752 864.584Z" fill="#FF701E" stroke="#FF701E" stroke-width="7" stroke-miterlimit="10"/>
<path d="M-66.9246 166.603C-66.9246 166.603 -66.4725 210.551 11.0308 227.564C88.5341 244.577 98.2652 230.949 128.35 295.691C158.435 360.433 187.288 410.083 258.633 351.544C330.01 293.019 234.9 195.546 234.9 195.546C234.9 195.546 171.535 123.009 247.377 40.5074C323.219 -41.9941 209.244 -90.8874 209.244 -90.8874C209.244 -90.8874 87.6291 -121.957 49.5182 25.3278C42.4007 104.897 5.64148 123.183 -24.0627 125.012C-53.7668 126.841 -66.945 166.563 -66.945 166.563L-66.9246 166.603Z" fill="#FF701E" stroke="#FF701E" stroke-width="7" stroke-miterlimit="10"/>
<path d="M138.144 946.177L139.811 944.042L139.96 943.851L140.081 943.642C143.033 938.542 148.628 927.281 148.497 914.909C148.431 908.644 146.894 902.041 142.772 895.869C138.657 889.708 132.12 884.209 122.429 879.88C121.845 879.609 121.261 879.393 120.788 879.225L120.77 879.219L120.752 879.212C88.9327 868.301 64.4359 874.311 46.4729 886.396C28.6884 898.361 17.5737 916.086 11.8249 928.358C6.13046 940.513 -0.273315 958.44 -5.58852 974.029C-7.463 979.527 -9.21288 984.766 -10.7537 989.38C-11.4023 991.322 -12.0138 993.153 -12.582 994.846C-14.5375 1000.67 -15.9187 1004.67 -16.5796 1006.16C-16.5732 1006.14 -16.6598 1006.32 -17.0071 1006.73C-17.3341 1007.12 -17.7957 1007.6 -18.4134 1008.18C-19.6552 1009.35 -21.3244 1010.75 -23.3752 1012.44C-23.8325 1012.81 -24.3062 1013.2 -24.7947 1013.6C-28.6297 1016.75 -33.3741 1020.64 -38.1911 1025.21C-49.0067 1035.46 -60.6903 1049.57 -63.8799 1067.5L-63.88 1067.5C-66.3357 1081.31 -61.2079 1091.06 -53.798 1097.6C-46.5805 1103.98 -37.2891 1107.27 -31.0767 1108.91C-26.1087 1110.21 -20.7957 1109.35 -16.5242 1106.4L-16.5226 1106.4C-7.77101 1100.34 14.2082 1087.6 48.1968 1084.3L138.144 946.177ZM138.144 946.177C138.015 946.397 137.858 946.626 137.67 946.865C137.243 947.405 136.637 948.017 135.768 948.708C134.273 949.906 132.05 952.107 130.802 955.244C129.606 958.252 129.178 962.429 131.711 968C135.546 976.434 142.239 994.776 143.776 1013.25C145.297 1031.54 141.822 1051.54 123.363 1060.78C116.899 1064.01 111.937 1066.69 107.721 1068.96C106.614 1069.55 105.558 1070.12 104.54 1070.67C99.6663 1073.27 95.6151 1075.33 91.0828 1077C82.0118 1080.36 71.3112 1082.06 48.1976 1084.3L138.144 946.177Z" fill="#FF7A47" stroke="#FF7A47" stroke-width="7" stroke-miterlimit="10"/>
<path d="M201.276 612.121L147.427 571.552C147.427 571.552 157.064 537.786 129.802 535.334C116.226 533.572 112.425 567.014 112.425 567.014C112.425 567.014 83.4643 553.549 86.5988 572.049C89.7334 590.55 130.506 592.465 130.506 592.465C130.506 592.465 176.509 627.104 181.74 627.267C186.971 627.43 182.697 655.357 192.329 664.764C201.961 674.171 210.359 677.308 211.513 658.532C212.667 639.756 222.314 638.556 225.411 639.24C228.509 639.924 252.17 634.639 246.472 623.279C240.774 611.918 225.726 606.813 213.512 609.467C201.298 612.12 202.599 613.103 201.298 612.12L201.276 612.121Z" stroke="#FF7A47" stroke-width="7" stroke-miterlimit="10"/>
<path d="M287.85 581.361C287.85 581.361 261.3 601.791 281.72 627.831C302.14 653.871 323.08 635.491 323.08 635.491C323.08 635.491 339.42 625.791 326.14 590.551C318.49 575.751 301.12 573.701 287.85 581.361Z" stroke="#FF701E" stroke-width="7" stroke-miterlimit="10"/>
<path d="M296.19 579.151C296.19 579.151 297.21 607.921 329.89 615.921" stroke="#FF701E" stroke-width="7" stroke-miterlimit="10"/>
<path d="M276.61 600.431C276.61 600.431 318.19 616.091 310.85 641.281" stroke="#FF701E" stroke-width="7" stroke-miterlimit="10"/>
</svg>
