<svg width="340" height="345" viewBox="0 0 340 345" fill="none" xmlns="http://www.w3.org/2000/svg">
<path d="M278.584 370.205H0C0 370.205 0.34633 317.264 52.0173 318.992C52.0173 318.992 -2.07797 227.633 68.6614 143.2C50.4486 108.59 72.1247 60.1424 72.1247 60.1424C72.1247 60.1424 52.0173 -0.375174 63.1134 0.817557C74.2095 2.00351 117.209 12.3857 116.509 16.5399C119.198 15.0693 124.054 13.7885 130.26 12.7449C130.423 12.711 130.607 12.6771 130.79 12.65C131.415 12.5483 132.053 12.4467 132.705 12.345C132.834 12.3315 132.956 12.3111 133.079 12.2908C148.188 10.0341 169.789 8.99725 188.118 9.52585C196.24 9.76304 203.716 10.3052 209.699 11.193C216.822 12.2434 221.834 13.7817 223.314 15.8487C245.507 8.1908 269.084 -3.14692 272.554 0.817557C276.024 4.77526 267.006 60.8336 267.006 60.8336C267.006 60.8336 282.958 99.5906 277.41 122.435C312.083 140.428 398.346 278.155 278.584 370.205Z" fill="#EE702A"/>
<path d="M141.207 78.5889C144.243 79.2666 145.771 82.7161 144.182 85.3861C141.329 90.1774 135.652 95.9039 125.487 93.1321C109.012 88.6323 114.907 72.7134 114.907 72.7134L123.673 74.6719C122.764 76.0544 122.309 77.7622 122.539 79.5784C122.954 82.8855 125.677 85.542 128.991 85.8809C133.364 86.3281 137.044 82.9194 137.044 78.6567C137.044 78.3111 137.017 77.979 136.977 77.6469L141.207 78.5957V78.5889Z" fill="white"/>
<path d="M137.044 78.6501C137.044 82.662 133.785 85.9149 129.758 85.9149C125.731 85.9149 122.478 82.662 122.478 78.6501C122.478 77.1795 122.92 75.8106 123.673 74.6653L136.977 77.6403C137.017 77.9724 137.044 78.3045 137.044 78.6501Z" fill="#1D1D1B"/>
<path d="M198.155 78.7314C195.486 79.3278 194.107 82.3164 195.432 84.7086C198.141 89.6151 203.866 96.0328 214.514 93.1255C230.988 88.6257 225.094 72.7068 225.094 72.7068L216.327 74.6653C217.237 76.0478 217.692 77.7556 217.461 79.5718C217.047 82.8789 214.323 85.5354 211.01 85.8743C206.636 86.3215 202.956 82.9128 202.956 78.6501C202.956 78.3045 202.983 77.9724 203.024 77.6404L198.155 78.7314Z" fill="white"/>
<path d="M202.956 78.6501C202.956 82.662 206.215 85.9149 210.242 85.9149C214.269 85.9149 217.522 82.662 217.522 78.6501C217.522 77.1795 217.08 75.8106 216.327 74.6653L203.023 77.6403C202.983 77.9724 202.956 78.3045 202.956 78.6501Z" fill="#1D1D1B"/>
<path d="M130.26 12.7381C130.26 12.7381 141.391 51.1427 146.64 60.1424C151.889 69.1421 151.889 10.312 151.889 10.312C151.889 10.312 135.584 11.708 130.267 12.7381H130.26Z" fill="#E94E1B"/>
<path d="M209.699 11.193C208.992 13.6327 198.433 49.7738 193.367 58.4617C188.498 66.8041 188.145 16.8517 188.118 9.52588C196.239 9.76307 203.716 10.3052 209.699 11.193Z" fill="#E94E1B"/>
<path d="M234.023 24.0826C234.023 24.0826 233.31 23.432 237.847 20.4366C243.184 16.9127 257.757 10.4475 264.528 7.1065C264.854 6.94386 265.132 7.39791 264.833 7.60799C258.823 11.8368 246.396 21.0804 240.821 28.9958C238.763 31.9167 234.023 24.0826 234.023 24.0826Z" fill="#1D1D1B"/>
<path d="M106.371 22.9914C106.371 22.9914 106.934 22.2053 101.862 20.2265C95.906 17.8952 80.2941 14.6288 72.9736 12.7855C72.6205 12.6974 72.4439 13.1988 72.7835 13.3412C79.5471 16.2146 93.6447 22.6526 100.755 29.2262C103.383 31.6523 106.371 22.9982 106.371 22.9982V22.9914Z" fill="#1D1D1B"/>
<path d="M186.176 127.938C185.483 119.284 170.401 108.597 170.401 108.597H167.841C167.841 108.597 152.758 119.284 152.066 127.938C151.393 136.308 156.405 141.39 169.124 141.106C181.843 141.39 186.855 136.315 186.182 127.938H186.176Z" fill="#EE8346"/>
<path d="M163.698 99.699C163.698 99.699 139.428 80.1206 127.041 108.204C121.622 122.89 140.834 136.545 153.559 125.207C166.285 113.87 169.124 109.492 169.124 109.492V98.1539C169.124 98.1539 166.333 97.6321 163.705 99.699H163.698Z" fill="#E94E1B"/>
<path d="M174.753 99.699C174.753 99.699 199.024 80.1206 211.41 108.204C216.829 122.89 197.618 136.545 184.892 125.207C172.166 113.87 169.328 109.492 169.328 109.492V98.1539C169.328 98.1539 171.983 97.6321 174.747 99.699H174.753Z" fill="#E94E1B"/>
<path d="M173.912 94.4131C171.786 94.1217 170.557 93.959 169.851 93.8574C169.803 93.8574 169.762 93.8506 169.715 93.8506H168.954C168.907 93.8506 168.866 93.8506 168.818 93.8574C168.105 93.9522 166.876 94.1217 164.758 94.4131C164.73 94.4131 164.696 94.4198 164.669 94.4266C158.361 95.7074 158.822 100.187 159.97 100.993C161.118 101.8 163.209 100.072 163.209 100.072C167.99 94.6164 168.323 105.195 168.309 108.624C168.309 109.187 168.764 109.647 169.335 109.647C169.898 109.647 170.36 109.193 170.36 108.624C170.346 105.195 170.679 94.6164 175.46 100.072C175.46 100.072 177.545 101.8 178.699 100.993C179.853 100.187 180.315 95.7074 174 94.4266C173.973 94.4266 173.939 94.4131 173.912 94.4131Z" fill="#1D1D1B"/>
<path d="M117.901 162.575C117.901 162.575 142.871 166.729 174.407 165.347C205.944 163.964 226.126 158.427 226.126 158.427C226.126 158.427 198.453 206.875 117.901 162.582V162.575Z" fill="#E94E1B"/>
<path d="M56.5703 327.289C56.5703 327.289 66.8854 350.405 85.4416 375.941C103.998 401.478 119.753 415.253 119.753 415.253C119.753 415.253 64.0789 418.912 56.5647 327.293L56.5703 327.289Z" fill="#E94E1B"/>
</svg>
