<svg width="176" height="87" viewBox="0 0 176 87" fill="none" xmlns="http://www.w3.org/2000/svg">
<path d="M38.3496 33.4592C39.1709 21.5696 42.6377 11.4712 51.6806 3.99482C57.7063 -0.989469 64.6398 -1.26637 70.8212 2.92181C84.4634 12.1722 89.4257 35.4841 80.7286 49.4851C75.5933 57.7663 67.0518 62.2227 58.5795 60.5439C48.1014 58.4585 42.3697 51.3023 39.6118 41.4548C38.8424 38.7204 38.7041 35.8042 38.3496 33.4592ZM69.4725 29.7989C68.3746 25.3338 67.5014 20.3755 65.8761 15.6767C64.7522 12.4404 62.8589 12.475 61.1212 15.5296C57.9138 21.1802 56.3923 27.324 57.2481 33.8053C57.5594 36.159 58.4239 38.6339 59.6947 40.6328C62.0808 44.3883 65.513 44.146 67.1297 40.0357C68.3141 37.0244 68.6253 33.6669 69.4725 29.7989Z" fill="white"/>
<path d="M175.991 31.7719C175.965 39.3262 174.409 45.271 170.847 50.5236C160.81 65.3293 140.9 63.9448 132.86 47.9535C125.831 33.9699 130.041 14.2058 142.153 4.28048C149.277 -1.56048 157.187 -1.39607 163.974 4.81698C172.23 12.3713 175.584 22.0456 175.991 31.7806V31.7719ZM160.36 30.0499C159.202 25.2993 158.346 20.3669 156.729 15.7028C155.614 12.4665 153.669 12.4492 152.009 15.4778C148.326 22.2014 146.606 29.349 148.802 36.9639C149.26 38.5647 150.098 40.2002 151.188 41.4463C153.548 44.1548 156.228 43.9644 157.611 40.6761C158.96 37.4658 159.418 33.8747 160.369 30.0499H160.36Z" fill="white"/>
<path d="M3.50068 36.1159C4.22688 33.0527 6.13748 29.9721 8.28151 27.6011C12.7943 22.6082 18.3446 24.0014 20.5318 30.3615C22.8488 37.0678 21.4569 43.7135 20.2033 50.3765C19.2005 55.6637 17.212 61.5825 22.0793 65.6669C22.6326 66.1341 28.6843 60.7951 29.7217 60.5355C32.9118 59.7221 35.3844 61.6691 35.9722 64.8275C36.8368 69.4657 36.8627 74.649 35.6264 79.14C34.8829 81.8312 31.347 84.7473 28.4682 85.6646C13.7021 90.3633 2.06557 82.3417 0.414328 66.8091C0.13768 64.2391 0.13768 61.6431 0.0166465 59.0558C-0.199485 59.0125 1.72841 43.627 3.50933 36.1159H3.50068Z" fill="white"/>
<path d="M94.1376 22.0369C96.0568 15.1749 100.993 11.6617 105.299 12.4578C108.956 13.1414 111.964 18.1776 111.653 24.9877C111.376 30.9758 110.01 36.9205 109.172 42.8827C108.912 44.7258 108.324 46.6987 108.739 48.4034C110.356 55.0924 114.03 52.0551 118.301 49.6062C119.166 49.113 120.065 48.6025 121.05 48.5159C122.857 48.3602 124.526 49.6928 125.347 51.3109C126.168 52.9291 126.315 54.7982 126.445 56.6067C126.843 62.1189 126.808 68.6348 122.356 71.8971C120.272 73.4287 117.601 73.8787 115.025 74.1123C108.489 74.7094 101.287 73.9479 96.515 69.4395C93.5584 66.6445 91.8985 62.7073 91.0512 58.7181C88.6046 47.2352 90.9994 33.2429 94.1289 22.0283L94.1376 22.0369Z" fill="white"/>
</svg>
