<svg width="29" height="28" viewBox="0 0 29 28" fill="none" xmlns="http://www.w3.org/2000/svg">
<g id="Frame">
<path id="Vector" d="M23.6833 24.5L16.0708 17.15C15.4667 17.6167 14.7719 17.9861 13.9865 18.2583C13.201 18.5306 12.3653 18.6667 11.4792 18.6667C9.28403 18.6667 7.42622 17.9326 5.90573 16.4646C4.38524 14.9965 3.625 13.2028 3.625 11.0833C3.625 8.96389 4.38524 7.17014 5.90573 5.70208C7.42622 4.23403 9.28403 3.5 11.4792 3.5C13.6743 3.5 15.5321 4.23403 17.0526 5.70208C18.5731 7.17014 19.3333 8.96389 19.3333 11.0833C19.3333 11.9389 19.1924 12.7458 18.9104 13.5042C18.6285 14.2625 18.2458 14.9333 17.7625 15.5167L25.375 22.8667L23.6833 24.5ZM11.4792 16.3333C12.9896 16.3333 14.2734 15.8229 15.3307 14.8021C16.388 13.7813 16.9167 12.5417 16.9167 11.0833C16.9167 9.625 16.388 8.38542 15.3307 7.36458C14.2734 6.34375 12.9896 5.83333 11.4792 5.83333C9.96875 5.83333 8.6849 6.34375 7.6276 7.36458C6.57031 8.38542 6.04167 9.625 6.04167 11.0833C6.04167 12.5417 6.57031 13.7813 7.6276 14.8021C8.6849 15.8229 9.96875 16.3333 11.4792 16.3333Z" fill="#FF5D18"/>
</g>
</svg>
