<svg width="316" height="539" viewBox="0 0 316 539" fill="none" xmlns="http://www.w3.org/2000/svg">
<path d="M0 19.9369C0 8.92605 8.92606 0 19.9369 0H296.063C307.074 0 316 8.92606 316 19.9369V450.281C316 499.279 276.279 539 227.281 539H19.9369C8.92607 539 0 530.074 0 519.063V19.9369Z" fill="#FEF6AC"/>
<path opacity="0.22" d="M22 79L294 79" stroke="#4B1400" stroke-width="2" stroke-linecap="round"/>
<path opacity="0.22" d="M22 112L294 112" stroke="#4B1400" stroke-width="2" stroke-linecap="round"/>
<path opacity="0.22" d="M22 145L294 145" stroke="#4B1400" stroke-width="2" stroke-linecap="round"/>
<path opacity="0.22" d="M22 178L294 178" stroke="#4B1400" stroke-width="2" stroke-linecap="round"/>
<path opacity="0.22" d="M22 211L294 211" stroke="#4B1400" stroke-width="2" stroke-linecap="round"/>
<path opacity="0.22" d="M22 244L294 244" stroke="#4B1400" stroke-width="2" stroke-linecap="round"/>
<path opacity="0.22" d="M22 277L294 277" stroke="#4B1400" stroke-width="2" stroke-linecap="round"/>
<path opacity="0.22" d="M22 310L294 310" stroke="#4B1400" stroke-width="2" stroke-linecap="round"/>
<path opacity="0.22" d="M22 343L294 343" stroke="#4B1400" stroke-width="2" stroke-linecap="round"/>
<path opacity="0.22" d="M22 376L294 376" stroke="#4B1400" stroke-width="2" stroke-linecap="round"/>
<path opacity="0.22" d="M22 409L294 409" stroke="#4B1400" stroke-width="2" stroke-linecap="round"/>
<path opacity="0.22" d="M22 442L294 442" stroke="#4B1400" stroke-width="2" stroke-linecap="round"/>
<path opacity="0.22" d="M22 475L290 475" stroke="#4B1400" stroke-width="1.98524" stroke-linecap="round"/>
<path opacity="0.22" d="M22 508L262 508" stroke="#4B1400" stroke-width="1.95959" stroke-linecap="round"/>
</svg>
