<svg width="196" height="86" viewBox="0 0 196 86" fill="none" xmlns="http://www.w3.org/2000/svg">
<path d="M4.72348 37.3979C12.7462 34.0524 33.6156 28.8067 52.9117 34.5877C77.0318 41.8139 77.6095 56.0447 90.9438 64.0164C96.9213 67.59 125.521 81.1748 143.053 64.9308" stroke="#FF5D18" stroke-width="9" stroke-linecap="round"/>
<path d="M5.79893 32.8864C14.0241 30.0754 34.1905 18.4633 53.0649 25.5C76.658 34.2958 72.565 58.1819 92.565 72.0001C104.065 79.9455 123.458 84.5078 142.02 69.4512" stroke="#FF7A47" stroke-width="2" stroke-linecap="round"/>
<circle cx="154.833" cy="41.5" r="39.5" fill="#FF5D18"/>
<path d="M115.333 46C120.289 33.8481 138.628 8.83544 172.333 6" stroke="#FF7A47" stroke-width="2" stroke-linecap="round"/>
<path d="M119.333 59C124.789 46.5504 145.627 20.3209 185.333 15" stroke="#FF7A47" stroke-width="2" stroke-linecap="round"/>
<path d="M127.333 69.9999C131.431 57.9916 149.979 32.7439 191.382 27.819" stroke="#FF7A47" stroke-width="2" stroke-linecap="round"/>
<path d="M152.333 52C157.07 58.5 166.286 73 165.252 79" stroke="#FF7A47" stroke-width="2" stroke-linecap="round"/>
<path d="M160.333 44C165.52 51.3697 175.779 68.0873 175.317 76" stroke="#FF7A47" stroke-width="2" stroke-linecap="round"/>
<path d="M170.333 40C175.188 46.7712 184.782 61.851 184.316 68" stroke="#FF7A47" stroke-width="2" stroke-linecap="round"/>
<path d="M181.333 37C184.801 42.3203 191.654 54.1686 191.321 59" stroke="#FF7A47" stroke-width="2" stroke-linecap="round"/>
<path d="M144.333 59C147.801 64.3203 154.654 76.1686 154.321 81" stroke="#FF7A47" stroke-width="2" stroke-linecap="round"/>
<path d="M137.333 66C139.76 69.6275 144.557 77.7059 144.324 81" stroke="#FF7A47" stroke-width="2" stroke-linecap="round"/>
<path d="M190.333 33C191.72 35.4183 194.461 40.8039 194.328 43" stroke="#FF7A47" stroke-width="2" stroke-linecap="round"/>
<path d="M148.995 6.36694C147.71 5.36994 145.25 3.22835 145.694 2.63801" stroke="#FF7A47" stroke-width="2" stroke-linecap="round"/>
<path d="M123.903 24.4807C122.928 23.1792 121.122 20.4631 121.706 20.0112" stroke="#FF7A47" stroke-width="2" stroke-linecap="round"/>
<path d="M139.333 11C138.295 9.84848 136.243 7.23636 136.336 6" stroke="#FF7A47" stroke-width="2" stroke-linecap="round"/>
<path d="M131.333 18C130.292 16.549 128.236 13.3176 128.336 12" stroke="#FF7A47" stroke-width="2" stroke-linecap="round"/>
<path d="M157.333 4C156.639 3.27451 155.268 1.65882 155.335 1" stroke="#FF7A47" stroke-width="2" stroke-linecap="round"/>
</svg>
