<svg width="46" height="45" viewBox="0 0 46 45" fill="none" xmlns="http://www.w3.org/2000/svg">
<rect x="0.0499878" width="45" height="45" rx="4" fill="white"/>
<path d="M10.3055 32.4447V29.3121C10.3055 28.6968 10.464 28.1188 10.781 27.578C11.098 27.0373 11.5362 26.6271 12.0956 26.3474C13.0466 25.8626 14.1187 25.4523 15.3121 25.1167C16.5055 24.7811 17.82 24.6133 19.2558 24.6133C20.6916 24.6133 22.0061 24.7811 23.1995 25.1167C24.3929 25.4523 25.465 25.8626 26.416 26.3474C26.9754 26.6271 27.4136 27.0373 27.7306 27.578C28.0476 28.1188 28.2061 28.6968 28.2061 29.3121V32.4447H10.3055ZM12.5431 30.2072H25.9685V29.3121C25.9685 29.107 25.9172 28.9206 25.8147 28.7527C25.7121 28.5849 25.5769 28.4544 25.4091 28.3612C24.7378 28.0255 23.8754 27.6899 22.8219 27.3543C21.7684 27.0186 20.5797 26.8508 19.2558 26.8508C17.9319 26.8508 16.7432 27.0186 15.6897 27.3543C14.6362 27.6899 13.7738 28.0255 13.1025 28.3612C12.9347 28.4544 12.7995 28.5849 12.6969 28.7527C12.5944 28.9206 12.5431 29.107 12.5431 29.3121V30.2072ZM19.2558 23.4945C18.0251 23.4945 16.9716 23.0563 16.0952 22.1799C15.2189 21.3035 14.7807 20.25 14.7807 19.0193H14.501C14.3332 19.0193 14.198 18.9681 14.0954 18.8655C13.9929 18.7629 13.9416 18.6278 13.9416 18.4599C13.9416 18.2921 13.9929 18.1569 14.0954 18.0544C14.198 17.9518 14.3332 17.9006 14.501 17.9006H14.7807C14.7807 17.0615 14.9858 16.3063 15.396 15.635C15.8062 14.9637 16.347 14.4323 17.0182 14.0408V15.1036C17.0182 15.2714 17.0695 15.4066 17.1721 15.5092C17.2746 15.6117 17.4098 15.663 17.5776 15.663C17.7454 15.663 17.8806 15.6117 17.9832 15.5092C18.0857 15.4066 18.137 15.2714 18.137 15.1036V13.5932C18.3048 13.5373 18.482 13.4953 18.6684 13.4674C18.8549 13.4394 19.0507 13.4254 19.2558 13.4254C19.4609 13.4254 19.6567 13.4394 19.8432 13.4674C20.0296 13.4953 20.2068 13.5373 20.3746 13.5932V15.1036C20.3746 15.2714 20.4259 15.4066 20.5284 15.5092C20.631 15.6117 20.7662 15.663 20.934 15.663C21.1018 15.663 21.237 15.6117 21.3395 15.5092C21.4421 15.4066 21.4934 15.2714 21.4934 15.1036V14.0408C22.1646 14.4323 22.7054 14.9637 23.1156 15.635C23.5258 16.3063 23.7309 17.0615 23.7309 17.9006H24.0106C24.1784 17.9006 24.3136 17.9518 24.4162 18.0544C24.5187 18.1569 24.57 18.2921 24.57 18.4599C24.57 18.6278 24.5187 18.7629 24.4162 18.8655C24.3136 18.9681 24.1784 19.0193 24.0106 19.0193H23.7309C23.7309 20.25 23.2927 21.3035 22.4164 22.1799C21.54 23.0563 20.4865 23.4945 19.2558 23.4945ZM19.2558 21.2569C19.8711 21.2569 20.3979 21.0378 20.8361 20.5996C21.2743 20.1614 21.4934 19.6347 21.4934 19.0193H17.0182C17.0182 19.6347 17.2373 20.1614 17.6755 20.5996C18.1137 21.0378 18.6405 21.2569 19.2558 21.2569ZM27.6467 25.732L27.4789 24.8929C27.367 24.8557 27.2598 24.8137 27.1572 24.7671C27.0547 24.7205 26.9568 24.6505 26.8635 24.5573L26.0804 24.837L25.521 23.8301L26.1363 23.2707V22.5994L25.521 22.0401L26.0804 21.0331L26.8635 21.3128C26.9381 21.2383 27.0313 21.173 27.1432 21.1171C27.2551 21.0611 27.367 21.0145 27.4789 20.9772L27.6467 20.1381H28.7655L28.9333 20.9772C29.0452 21.0145 29.157 21.0611 29.2689 21.1171C29.3808 21.173 29.474 21.2383 29.5486 21.3128L30.3318 21.0331L30.8911 22.0401L30.2758 22.5994V23.2707L30.8911 23.8301L30.3318 24.837L29.5486 24.5573C29.4554 24.6505 29.3575 24.7205 29.2549 24.7671C29.1524 24.8137 29.0452 24.8557 28.9333 24.8929L28.7655 25.732H27.6467ZM28.2061 23.7742C28.4298 23.7742 28.6256 23.6903 28.7934 23.5224C28.9612 23.3546 29.0452 23.1588 29.0452 22.9351C29.0452 22.7113 28.9612 22.5155 28.7934 22.3477C28.6256 22.1799 28.4298 22.096 28.2061 22.096C27.9823 22.096 27.7865 22.1799 27.6187 22.3477C27.4509 22.5155 27.367 22.7113 27.367 22.9351C27.367 23.1588 27.4509 23.3546 27.6187 23.5224C27.7865 23.6903 27.9823 23.7742 28.2061 23.7742ZM30.2199 20.1381L29.9961 18.9634C29.8283 18.9075 29.6745 18.8375 29.5346 18.7536C29.3948 18.6697 29.2689 18.5718 29.157 18.4599L27.9823 18.8515L27.1992 17.509L28.1501 16.6699C28.1128 16.5767 28.0942 16.5021 28.0942 16.4461V15.9986C28.0942 15.9427 28.1128 15.8681 28.1501 15.7749L27.1992 14.9358L27.9823 13.5932L29.157 13.9848C29.2689 13.8729 29.3948 13.775 29.5346 13.6911C29.6745 13.6072 29.8283 13.5373 29.9961 13.4814L30.2199 12.3066H31.7862L32.0099 13.4814C32.1777 13.5373 32.3316 13.6072 32.4714 13.6911C32.6113 13.775 32.7371 13.8729 32.849 13.9848L34.0237 13.5932L34.8069 14.9358L33.8559 15.7749C33.8932 15.8681 33.9119 15.9427 33.9119 15.9986V16.4461C33.9119 16.5021 33.8932 16.5767 33.8559 16.6699L34.8069 17.509L34.0237 18.8515L32.849 18.4599C32.7371 18.5718 32.6113 18.6697 32.4714 18.7536C32.3316 18.8375 32.1777 18.9075 32.0099 18.9634L31.7862 20.1381H30.2199ZM31.003 17.6209C31.3946 17.6209 31.7256 17.4857 31.9959 17.2153C32.2663 16.9449 32.4015 16.614 32.4015 16.2224C32.4015 15.8308 32.2663 15.4998 31.9959 15.2295C31.7256 14.9591 31.3946 14.8239 31.003 14.8239C30.6114 14.8239 30.2805 14.9591 30.0101 15.2295C29.7397 15.4998 29.6045 15.8308 29.6045 16.2224C29.6045 16.614 29.7397 16.9449 30.0101 17.2153C30.2805 17.4857 30.6114 17.6209 31.003 17.6209Z" fill="#FF5D00"/>
</svg>
