<svg width="46" height="45" viewBox="0 0 46 45" fill="none" xmlns="http://www.w3.org/2000/svg">
<rect x="0.5" width="45" height="45" rx="4" fill="white"/>
<path d="M27.1646 22.562C27.4552 22.562 27.6987 22.4637 27.8953 22.2671C28.0919 22.0706 28.1901 21.827 28.1901 21.5364C28.1901 21.2459 28.0919 21.0023 27.8953 20.8057C27.6987 20.6092 27.4552 20.5109 27.1646 20.5109C26.874 20.5109 26.6305 20.6092 26.4339 20.8057C26.2373 21.0023 26.139 21.2459 26.139 21.5364C26.139 21.827 26.2373 22.0706 26.4339 22.2671C26.6305 22.4637 26.874 22.562 27.1646 22.562ZM18.9602 20.5109H24.0879V18.4598H18.9602V20.5109ZM15.3708 32.8175C14.7896 30.869 14.217 28.9247 13.653 26.9847C13.0889 25.0447 12.8069 23.0577 12.8069 21.0237C12.8069 19.4512 13.3538 18.1179 14.4478 17.024C15.5417 15.9301 16.8749 15.3831 18.4474 15.3831H23.5752C24.0709 14.7336 24.6734 14.2294 25.3827 13.8704C26.092 13.5115 26.8569 13.332 27.6774 13.332C28.1047 13.332 28.4679 13.4816 28.767 13.7807C29.0661 14.0798 29.2157 14.443 29.2157 14.8704C29.2157 14.9729 29.2029 15.0755 29.1772 15.178C29.1516 15.2806 29.1217 15.3746 29.0875 15.46C29.0191 15.6481 28.955 15.8404 28.8952 16.0369C28.8354 16.2335 28.7884 16.4343 28.7542 16.6394L31.0873 18.9726H33.3179V26.1258L30.4207 27.0744L28.7029 32.8175H23.0624V30.7664H21.0113V32.8175H15.3708ZM16.9091 30.7664H18.9602V28.7153H25.1135V30.7664H27.1646L28.7542 25.4848L31.2668 24.6387V21.0237H30.2412L26.6518 17.4342C26.6518 17.0924 26.6732 16.7634 26.7159 16.4471C26.7586 16.1309 26.8227 15.8104 26.9082 15.4857C26.4125 15.6224 25.9767 15.8575 25.6006 16.1908C25.2246 16.5241 24.9511 16.9386 24.7802 17.4342H18.4474C17.456 17.4342 16.61 17.7846 15.9092 18.4854C15.2084 19.1862 14.858 20.0323 14.858 21.0237C14.858 22.6987 15.0887 24.3353 15.5502 25.9335C16.0117 27.5316 16.4647 29.1426 16.9091 30.7664Z" fill="#FF5D00"/>
</svg>
