<svg width="421" height="443" viewBox="0 0 421 443" fill="none" xmlns="http://www.w3.org/2000/svg">
<path d="M310.993 376.987C308.14 392.149 288.231 442.402 255.992 441.464C223.754 440.506 146.01 441.464 146.01 441.464C146.01 441.464 142.599 413.355 160.015 403.161C160.973 402.602 161.99 402.084 163.087 401.645C159.456 394.303 157.142 371.521 158.758 358.055C158.878 357.097 159.017 356.2 159.177 355.342C159.556 353.247 160.075 351.492 160.713 350.195C154.748 349.576 151.736 349.437 150.3 349.437C149.242 349.437 148.983 349.497 148.983 349.497L143.956 362.364L135.377 384.328L113.074 441.464L39.1208 443C39.1208 443 35.5698 407.091 72.1772 401.764C74.7707 385.466 76.6459 372.957 77.9426 363.98C78.0025 363.541 78.0623 363.102 78.1421 362.683C79.9176 351.691 87.0197 320.231 89.8724 307.662C88.7553 305.707 87.6979 303.692 86.7204 301.638" fill="url(#paint0_linear_117_380)"/>
<path d="M183.975 401.644C182.877 402.083 162.828 390.034 156.265 384.328L164.843 362.364L169.87 349.496C169.87 349.496 170.13 349.437 171.187 349.437C172.623 349.437 175.636 349.576 181.601 350.195C180.962 351.491 180.443 353.247 180.064 355.342C180.623 356.359 180.443 357.257 179.645 358.055C178.03 371.521 180.344 394.303 183.975 401.644Z" fill="#FCCB7D"/>
<path d="M331.88 376.986C329.027 392.148 309.117 442.401 276.879 441.463C244.641 440.506 166.897 441.463 166.897 441.463C166.897 441.463 163.486 413.354 180.902 403.16C181.859 402.602 182.877 402.083 183.974 401.644C180.343 394.303 178.029 371.52 179.645 358.054C179.765 357.097 179.904 356.199 180.064 355.341C180.443 353.247 180.962 351.491 181.6 350.194C175.635 349.576 172.623 349.436 171.186 349.436C170.129 349.436 169.87 349.496 169.87 349.496L164.842 362.363L156.264 384.328L133.961 441.463L60.0077 442.999C60.0077 442.999 56.4567 407.09 93.0641 401.764C95.6575 385.465 97.5328 372.957 98.8295 363.979C98.8893 363.54 98.9492 363.102 99.029 362.683C100.804 351.69 107.907 320.23 110.759 307.662C109.642 305.707 108.585 303.692 107.607 301.637C80.3762 245.938 94.4805 158.22 94.4805 158.22C94.4805 158.22 111.537 124.086 100.166 103.219C40.4372 101.324 23.3604 63.3999 23.3604 63.3999L5.08667 60.7666C5.12657 59.9486 5.18642 59.1307 5.24627 58.3128C4.98692 44.0888 64.9751 44.0888 64.9751 44.0888C64.9751 44.0888 72.0971 25.5956 111.916 22.7627C130.41 22.7627 140.364 27.012 140.364 27.012C140.364 27.012 165.96 -8.17898 175.196 1.77583C184.453 6.04503 188.004 36.6277 189.779 67.1903C191.555 97.7729 209.569 160.813 253.179 212.024C296.789 263.214 341.356 288.81 339.461 339.062C355.58 280.271 306.743 238.337 295.492 209.051C284.959 181.641 288.43 155.407 304.828 135.338C304.988 145.612 326.274 130.949 326.274 130.949C326.274 130.949 313.008 159.856 320.588 167.437C328.169 175.018 335.531 137.233 336.189 134.001C335.67 137.193 329.426 175.716 336.229 180.723C342.712 185.471 352.807 150.619 354.503 144.614C353.106 150.36 345.445 182.878 352.348 181.162C357.555 179.865 360.647 167.995 362.063 160.674C361.724 165.581 362.602 170.708 365.056 175.995C384.008 216.752 440.904 331.482 331.88 376.986Z" fill="url(#paint1_linear_117_380)"/>
<path d="M107.608 301.637C91.1697 298.066 35.0118 277.758 59.2504 169.97C59.5896 168.454 59.9487 166.918 60.3277 165.362C61.3052 161.372 62.3626 157.302 63.5196 153.153C63.7989 152.155 64.0782 151.158 64.3775 150.14C64.5969 149.382 64.8163 148.624 65.0358 147.846C65.6542 145.752 66.2926 143.637 66.951 141.502C67.6891 139.148 68.4472 136.794 69.2451 134.4C69.2451 134.4 2.09505 121.234 5.08748 60.7666L23.3612 63.3999C23.3612 63.3999 40.438 101.324 100.167 103.219C111.538 124.086 94.4813 158.22 94.4813 158.22C94.4813 158.22 80.377 245.938 107.608 301.637Z" fill="url(#paint2_linear_117_380)"/>
<path d="M102.242 346.284C102.242 346.284 29.0469 302.176 59.2504 169.97C59.5896 168.454 59.9487 166.918 60.3277 165.362C61.3052 161.372 62.3626 157.302 63.5196 153.153C63.7989 152.155 64.0782 151.158 64.3775 150.14C64.5969 149.382 64.8164 148.624 65.0358 147.846C65.6542 145.752 66.2926 143.637 66.951 141.502C67.6891 139.148 68.4472 136.794 69.2451 134.4C69.2451 134.4 2.09505 121.234 5.08748 60.7666L23.3612 63.3999C23.3612 63.3999 40.438 101.324 100.167 103.219C111.538 124.086 94.4813 158.22 94.4813 158.22C94.4813 158.22 80.377 245.938 107.608 301.637C108.586 303.692 109.643 305.707 110.76 307.662C107.907 320.23 102.242 346.284 102.242 346.284Z" fill="#FCDEAE"/>
<path d="M164.843 362.364L169.87 349.496C169.87 349.496 170.129 349.437 171.187 349.437C176.413 351.731 179.206 353.686 180.064 355.342C180.623 356.359 172.184 361.406 164.843 362.364Z" fill="#FCCB7D"/>
<path d="M4.82756 67.8091C4.82756 67.8091 12.3884 68.3078 16.8172 66.8515C21.246 65.3952 25.6549 65.874 29.565 50.2734C31.5599 44.8871 21.8445 42.2936 21.8445 42.2936C21.8445 42.2936 -3.27195 36.5282 0.358867 62.1833C1.49599 66.253 4.84751 67.8091 4.84751 67.8091H4.82756Z" fill="#1D1D1B"/>
<path d="M420.994 104.875C420.994 104.875 420.695 104.995 420.116 105.234C420.017 105.294 419.877 105.354 419.757 105.394C419.618 105.454 419.478 105.514 419.318 105.593C419.179 105.653 418.999 105.733 418.82 105.813C418.66 105.873 418.481 105.952 418.281 106.052C417.962 106.192 417.623 106.351 417.264 106.511C416.964 106.651 416.645 106.79 416.326 106.95C416.087 107.05 415.827 107.169 415.568 107.309C414.531 107.788 413.374 108.346 412.097 108.985C411.558 109.244 410.98 109.543 410.381 109.863C408.965 110.581 407.448 111.379 405.853 112.257C405.493 112.436 405.134 112.636 404.775 112.855C399.389 115.847 393.224 119.618 387.319 124.087C386.9 124.386 386.482 124.705 386.063 125.044C385.923 125.144 385.783 125.244 385.644 125.363C384.945 125.902 384.247 126.461 383.569 127.039C383.15 127.358 382.731 127.697 382.332 128.057C380.696 129.433 379.12 130.849 377.604 132.326C377.225 132.685 376.846 133.064 376.487 133.443C373.873 136.056 371.479 138.829 369.445 141.722C369.205 142.021 369.006 142.34 368.786 142.66C367.849 144.016 367.011 145.413 366.253 146.829C366.013 147.268 365.794 147.707 365.594 148.146C365.315 148.684 365.056 149.223 364.836 149.762C364.677 150.121 364.517 150.46 364.397 150.819C364.198 151.278 364.018 151.717 363.879 152.176C363.699 152.634 363.56 153.093 363.42 153.552C363.26 154.011 363.141 154.47 363.021 154.929C362.781 155.806 362.582 156.684 362.442 157.582C362.382 157.821 362.363 158.061 362.343 158.28C362.283 158.599 362.243 158.899 362.203 159.198C362.143 159.677 362.103 160.155 362.063 160.634V160.674C360.647 167.995 357.555 179.865 352.348 181.162C345.326 182.898 353.365 149.303 354.562 144.355C353.106 149.582 342.812 185.551 336.229 180.723C329.426 175.716 335.67 137.193 336.189 134.001C335.53 137.233 327.85 174.699 320.588 167.437C313.327 160.175 326.274 130.949 326.274 130.949C326.274 130.949 304.988 145.612 304.828 135.338C321.586 114.77 351.869 100.646 394.441 98.252C415.309 98.252 420.994 104.875 420.994 104.875Z" fill="#FCDEAE"/>
<path d="M81.9448 64.2183C82.8462 59.3877 81.0746 55.0048 77.9878 54.4288C74.901 53.8528 71.6679 57.3018 70.7665 62.1324C69.8651 66.963 71.6367 71.3459 74.7235 71.9219C77.8103 72.4979 81.0434 69.0489 81.9448 64.2183Z" fill="#1D1D1B"/>
<path d="M88.8551 48.5177C88.8551 48.5177 85.3041 46.9217 86.0223 44.6076C86.7405 42.2934 88.6756 42.1139 91.7079 41.7748C94.7402 41.4356 108.745 44.2684 104.316 50.2932C99.8872 56.318 92.6056 51.3505 92.067 50.2932C91.5284 49.2359 88.8751 48.5177 88.8751 48.5177H88.8551Z" fill="#FCDEAE"/>
<path opacity="0.32" d="M69.2449 134.4C69.2449 134.4 79.1797 135.637 85.0648 134.4C90.95 133.163 63.9583 151.557 63.9583 151.557L69.2249 134.4H69.2449Z" fill="url(#paint3_linear_117_380)"/>
<path d="M151.696 28.8871C150.799 29.4856 145.672 32.3583 149.063 36.7273C152.454 41.0962 164.185 48.2781 164.185 48.2781C164.185 48.2781 172.244 53.7442 175.117 46.9614C177.99 40.1786 176.095 15.5608 170.05 11.8901C164.005 8.21942 159.536 23.6603 151.696 28.9071V28.8871Z" fill="#FCDEAE"/>
<path d="M183.755 27.5109C183.915 28.3288 184.074 30.0644 182.738 30.8225C180.962 31.82 180.064 30.0046 180.064 30.0046C180.064 30.0046 180.962 33.376 178.289 33.5556C177.531 33.6154 176.873 33.017 176.294 32.1192C175.735 23.3813 173.621 14.0051 170.05 11.8705C166.738 9.83561 163.885 13.5861 160.693 18.2543C159.257 20.369 157.462 21.2467 156.464 21.147C154.749 20.9874 154.908 18.3341 155.148 18.0548C154.908 18.1945 153.552 19.0124 150.838 19.4313C147.806 19.8702 148.804 16.5786 148.804 16.5786H148.824C157.123 7.10253 169.391 -4.48815 175.197 1.776C180.663 4.30959 184.154 16.0399 186.448 31.5207C184.793 30.7028 184.014 28.4685 183.755 27.5109Z" fill="black"/>
<defs>
<linearGradient id="paint0_linear_117_380" x1="32.6772" y1="426.242" x2="291.562" y2="326.535" gradientUnits="userSpaceOnUse">
<stop stop-color="#B84808"/>
<stop offset="1" stop-color="#CC3C00"/>
</linearGradient>
<linearGradient id="paint1_linear_117_380" x1="5.34602" y1="301.099" x2="363.081" y2="163.327" gradientUnits="userSpaceOnUse">
<stop stop-color="#FF640B"/>
<stop offset="1" stop-color="#FF4B00"/>
</linearGradient>
<linearGradient id="paint2_linear_117_380" x1="39.7797" y1="187.586" x2="117.463" y2="157.661" gradientUnits="userSpaceOnUse">
<stop stop-color="#FF640B"/>
<stop offset="1" stop-color="#FF4B00"/>
</linearGradient>
<linearGradient id="paint3_linear_117_380" x1="63.9782" y1="142.938" x2="85.9227" y2="142.938" gradientUnits="userSpaceOnUse">
<stop stop-color="#FF640B"/>
<stop offset="1" stop-color="#FF4B00"/>
</linearGradient>
</defs>
</svg>
