<svg width="28" height="28" viewBox="0 0 28 28" fill="none" xmlns="http://www.w3.org/2000/svg">
<g id="Frame">
<path id="Vector" d="M10.7333 18.6665L14 16.2165L17.2083 18.6665L15.9833 14.6998L19.25 12.1332H15.2833L14 8.1665L12.7166 12.1332H8.74998L11.9583 14.6998L10.7333 18.6665ZM4.66665 23.3332C4.02498 23.3332 3.47567 23.1047 3.01873 22.6478C2.56179 22.1908 2.33331 21.6415 2.33331 20.9998V17.0623C2.33331 16.8484 2.40137 16.6637 2.53748 16.5082C2.67359 16.3526 2.84859 16.2554 3.06248 16.2165C3.52915 16.0609 3.91317 15.779 4.21456 15.3707C4.51595 14.9623 4.66665 14.5054 4.66665 13.9998C4.66665 13.4943 4.51595 13.0373 4.21456 12.629C3.91317 12.2207 3.52915 11.9387 3.06248 11.7832C2.84859 11.7443 2.67359 11.6471 2.53748 11.4915C2.40137 11.3359 2.33331 11.1512 2.33331 10.9373V6.99984C2.33331 6.35817 2.56179 5.80886 3.01873 5.35192C3.47567 4.89498 4.02498 4.6665 4.66665 4.6665H23.3333C23.975 4.6665 24.5243 4.89498 24.9812 5.35192C25.4382 5.80886 25.6666 6.35817 25.6666 6.99984V10.9373C25.6666 11.1512 25.5986 11.3359 25.4625 11.4915C25.3264 11.6471 25.1514 11.7443 24.9375 11.7832C24.4708 11.9387 24.0868 12.2207 23.7854 12.629C23.484 13.0373 23.3333 13.4943 23.3333 13.9998C23.3333 14.5054 23.484 14.9623 23.7854 15.3707C24.0868 15.779 24.4708 16.0609 24.9375 16.2165C25.1514 16.2554 25.3264 16.3526 25.4625 16.5082C25.5986 16.6637 25.6666 16.8484 25.6666 17.0623V20.9998C25.6666 21.6415 25.4382 22.1908 24.9812 22.6478C24.5243 23.1047 23.975 23.3332 23.3333 23.3332H4.66665ZM4.66665 20.9998H23.3333V18.0248C22.6139 17.5971 22.0451 17.0283 21.6271 16.3186C21.209 15.6089 21 14.8359 21 13.9998C21 13.1637 21.209 12.3908 21.6271 11.6811C22.0451 10.9714 22.6139 10.4026 23.3333 9.97484V6.99984H4.66665V9.97484C5.38609 10.4026 5.95484 10.9714 6.3729 11.6811C6.79095 12.3908 6.99998 13.1637 6.99998 13.9998C6.99998 14.8359 6.79095 15.6089 6.3729 16.3186C5.95484 17.0283 5.38609 17.5971 4.66665 18.0248V20.9998Z" fill="white"/>
</g>
</svg>
