<svg width="6" height="25" viewBox="0 0 6 25" fill="none" xmlns="http://www.w3.org/2000/svg">
<path d="M3 24.5C2.175 24.5 1.46875 24.2063 0.88125 23.6188C0.29375 23.0313 0 22.325 0 21.5C0 20.675 0.29375 19.9688 0.88125 19.3813C1.46875 18.7938 2.175 18.5 3 18.5C3.825 18.5 4.53125 18.7938 5.11875 19.3813C5.70625 19.9688 6 20.675 6 21.5C6 22.325 5.70625 23.0313 5.11875 23.6188C4.53125 24.2063 3.825 24.5 3 24.5ZM3 15.5C2.175 15.5 1.46875 15.2063 0.88125 14.6188C0.29375 14.0313 0 13.325 0 12.5C0 11.675 0.29375 10.9688 0.88125 10.3813C1.46875 9.79375 2.175 9.5 3 9.5C3.825 9.5 4.53125 9.79375 5.11875 10.3813C5.70625 10.9688 6 11.675 6 12.5C6 13.325 5.70625 14.0313 5.11875 14.6188C4.53125 15.2063 3.825 15.5 3 15.5ZM3 6.5C2.175 6.5 1.46875 6.20625 0.88125 5.61875C0.29375 5.03125 0 4.325 0 3.5C0 2.675 0.29375 1.96875 0.88125 1.38125C1.46875 0.79375 2.175 0.5 3 0.5C3.825 0.5 4.53125 0.79375 5.11875 1.38125C5.70625 1.96875 6 2.675 6 3.5C6 4.325 5.70625 5.03125 5.11875 5.61875C4.53125 6.20625 3.825 6.5 3 6.5Z" fill="#929292"/>
</svg>
