<svg width="203" height="247" viewBox="0 0 203 247" fill="none" xmlns="http://www.w3.org/2000/svg">
<path d="M182.657 242.843C182.657 242.843 212.227 241.921 222.586 189.522C232.945 137.124 223.636 130.767 266.784 109.609C309.931 88.4514 342.939 68.3351 302.539 21.1441C262.148 -26.0687 197.888 39.3115 197.888 39.3115C197.888 39.3115 149.963 82.9762 93.3729 33.0962C36.7831 -16.7838 5.4821 60.6077 5.4821 60.6077C5.4821 60.6077 -13.7162 142.891 85.9414 166.466C139.591 170.137 152.414 194.618 154.063 214.583C155.712 234.548 182.63 242.858 182.63 242.858L182.657 242.843Z" fill="#E4EAAA" stroke="#E4EAAA" stroke-width="7" stroke-miterlimit="10"/>
</svg>
