<svg width="198" height="142" viewBox="0 0 198 142" fill="none" xmlns="http://www.w3.org/2000/svg">
<path d="M261.135 48.2174C259.771 42.7871 256.978 37.2475 252.383 31.6995C254.492 31.5644 256.88 31.4214 259.279 31.2827C262.868 31.0754 266.468 30.8785 269.172 30.7335C270.524 30.661 271.651 30.6015 272.441 30.5601L273.357 30.5123L273.598 30.4998L273.659 30.4966L273.675 30.4958L273.679 30.4956L273.68 30.4955C273.68 30.4955 273.68 30.4955 273.5 27.0002L273.68 30.4955L282.901 30.0201L275.682 24.2637C249.165 3.11884 216.606 1.04312 188.666 6.44939C160.841 11.8336 136.812 24.7861 126.887 34.8005C117.438 44.3345 105.381 59.0658 95.1355 71.9612C91.522 76.5091 88.1128 80.8556 85.1108 84.6829C83.8473 86.2937 82.6559 87.8126 81.5518 89.2158C77.7519 94.0451 75.1077 97.3449 73.9852 98.5241C73.9961 98.5127 73.8536 98.6543 73.3886 98.924C72.9507 99.1781 72.3553 99.4728 71.5781 99.813C70.0155 100.497 67.9725 101.255 65.4735 102.156C64.9163 102.357 64.3394 102.564 63.7446 102.777C59.0749 104.452 53.2979 106.524 47.2261 109.206C33.5932 115.228 17.8496 124.581 8.81745 140.4L8.81735 140.4C1.86204 152.582 3.41576 163.484 8.19425 172.14C12.8487 180.571 20.4916 186.798 25.7934 190.425C30.0333 193.325 35.3276 194.297 40.3433 192.951L40.3452 192.951C50.6241 190.186 75.6074 185.574 108.727 193.896C131.247 199.559 141.898 201.55 151.569 201.439C156.401 201.384 160.909 200.806 166.374 199.992C167.515 199.822 168.701 199.641 169.945 199.452C174.678 198.73 180.25 197.881 187.425 197.006C207.916 194.509 217.909 176.846 222.625 159.108C227.388 141.19 227.25 121.665 226.473 112.433C225.96 106.335 227.767 102.545 229.905 100.114C232.134 97.5786 234.968 96.253 236.779 95.6275C237.829 95.2691 238.606 94.8968 239.189 94.5309C239.447 94.3697 239.671 94.2067 239.867 94.043L242.154 92.5918L242.359 92.4623L242.543 92.3059C247.038 88.4949 256.093 79.7697 260.128 68.0744C262.172 62.1508 262.944 55.4158 261.135 48.2174Z" fill="#E94E1B" stroke="#E94E1B" stroke-width="7" stroke-miterlimit="10"/>
</svg>
